<svg width="440" height="963" viewBox="0 0 440 963" fill="none" xmlns="http://www.w3.org/2000/svg">
<rect y="353" width="440" height="610" fill="#1C4E89"/>
<path d="M0 173.5H440V339H0V173.5Z" fill="#DDEAF8"/>
<path d="M265.307 189.479H292.093H326L316.167 193H50L70.344 189.479C75.317 189.479 86.6192 188.839 92.0442 186.278C98.8256 183.077 106.285 186.278 112.727 186.278H125.951C131.715 186.278 137.818 189.479 144.26 189.479C150.703 189.479 164.943 186.278 172.403 183.717C179.862 181.156 190.034 186.278 198.511 186.278C206.988 186.278 220.889 189.479 225.297 189.479C229.705 189.479 235.808 186.278 244.963 186.278C254.118 186.278 261.577 189.479 265.307 189.479Z" fill="#AACBEE"/>
<path d="M142.548 28.3173C124.827 28.3173 55.9915 25.6039 41.9936 15.4006C34.9283 10.2506 12.6178 9.20732 0 9.81472V155H440V15.7887C434.622 15.5308 429.853 15.4006 426.074 15.4006H371.436C350.762 15.4006 306.954 0 279.388 0C251.823 0 251.331 15.4006 228.688 28.3173C206.046 41.234 160.268 28.3173 142.548 28.3173Z" fill="#669FE1"/>
<path d="M55.3449 52.3855C40.5345 45.7981 12.342 52.3855 0 58.9728V174H440V38C411.367 38 424.617 38.1969 389.566 45.7978C354.515 53.3987 273.551 45.7978 254.791 45.7978C236.032 45.7978 207.398 52.3855 191.107 52.3855C174.816 52.3855 146.182 58.9728 124.954 52.3855C103.726 45.7981 70.1553 58.9728 55.3449 52.3855Z" fill="#99BFEB"/>
<path d="M8.69409 325.015C6.53936 325.015 2.87298 323.858 0 323V370H440V324.156C429.945 326.731 403.295 318.997 397.054 318.997C390.813 318.997 397.488 325.015 373.649 314.717C370.946 313.549 358.888 310.424 352.424 307.85C345.96 305.276 337.341 310.424 334.468 307.85C331.595 305.276 328.003 305.275 321.539 305.275C315.075 305.275 307.893 310.424 304.301 307.85C300.71 305.276 297.837 305.275 294.964 305.275H282.754C277.726 305.275 274.135 307.85 269.826 307.85C265.516 307.85 264.798 306.992 260.488 305.275C256.179 303.559 251.87 310.424 249.715 310.424C247.56 310.424 223.876 310.427 219.567 310.427C215.258 310.427 190.057 318.997 182.875 318.997C175.692 318.997 163.884 310.427 154.423 310.427C146.749 310.427 141.34 306.994 129.848 306.994C120.655 306.994 106.864 313.859 101.119 317.292C95.3726 320.724 79.8127 322.269 74.0667 325.015C66.8843 328.447 38.8604 331.88 34.5509 330.164C30.2415 328.447 10.8488 325.015 8.69409 325.015Z" fill="#1C4E89"/>
<path d="M316.816 313.588V323.278V330.476H50V310.358H50.9262V308.051H53.2416L54.5537 304.452V296.515L56.3289 294.3V291.809H55.1712V282.211L52.8557 279.443L55.5571 272.521V262.739H56.792V258.217L57.1007 255.91L57.9497 254.341L58.7215 253.142V250.004H57.9497V248.897H58.7215L59.8792 231.916L60.7282 221.765L61.2685 231.916L62.5034 248.897H63.0436V250.004H62.5034V253.142L63.5839 254.341L64.5101 255.91L65.1275 258.217V262.739H65.8994V272.521L68.5235 279.443L66.2081 282.211V291.809H64.8188V294.3L66.2081 296.515V304.452L67.1343 308.051H69.141V310.358H69.99V316.172H159.057V314.788L162.376 311.742V308.051L164.151 307.312V298.546L165.772 296.515V290.609H166.775V266.154L163.611 262.186L164.151 252.496H168.01V248.528L172.332 243.175V237.638L174.571 234.87L174.339 222.411L171.406 219.458L171.715 207.738H171.175V204.047H174.339L179.742 196.018V187.528L177.812 184.667L180.9 180.883L182.366 170.086H182.829V167.964L181.903 166.764L183.061 164.641V155.782L182.366 154.859H179.047V153.752H182.366L183.369 152.275V146H184.45V152.275L185.53 153.752H189.544V154.859H185.53L184.99 155.782L184.836 164.641L186.148 166.764L184.99 167.964V170.086H185.53L187.228 180.883L190.393 184.667L188.926 187.528V196.018L194.175 204.047H197.416V207.738H196.953V219.458L194.792 222.411V234.87L196.953 237.638V243.175L201.121 248.528V252.496H205.212L206.138 262.186L203.9 266.154V290.609H204.517V296.515L206.369 298.546V307.312L207.45 308.051V311.742L211.926 313.588V314.788H285.943V313.588L283.782 309.804L288.953 304.636V300.299L289.648 299.191V280.089H289.339V277.782L287.95 275.198L289.648 271.322L290.42 262.462L290.96 261.355V259.233H291.655V244.006L292.349 242.621L292.658 237.915L293.816 234.131L295.437 231.64L296.672 229.425L297.675 228.687V225.087H297.057V224.072H297.675V221.95L298.061 220.196V214.198L297.675 213.275L298.061 212.537L298.37 209.861L299.604 207.646L300.762 209.861L301.071 212.537L301.38 213.275L301.071 214.198V220.196L301.38 221.95V224.072H301.997V225.087H301.38V228.687L302.46 229.425L304.081 231.64L305.702 234.131L307.4 237.915V242.621L307.94 244.006V259.233H308.558V261.355L309.252 262.462L310.101 271.045L312.417 275.198L311.336 277.782V280.089H310.873V299.191L311.722 300.299V304.636L318.514 309.804L316.816 313.588Z" fill="#1C4E89"/>
</svg>
