<svg width="1438" height="335" viewBox="0 0 1438 335" fill="none" xmlns="http://www.w3.org/2000/svg">
<path d="M-1.91357 135.32V335H716.698H1434.66C1437.18 294.041 1440.71 0 1434.66 0H1399C1388.41 0 1344.54 17.1095 1329.41 17.1095C1314.28 17.1095 1271.92 24.8865 1261.33 17.1095C1250.74 9.33259 1237.12 17.1095 1222 17.1095C1206.87 17.1095 1172.07 18.665 1161.48 17.1095C1150.89 15.5541 1149.38 24.8865 1143.33 29.5528C1137.27 34.2191 1120.63 29.5528 1099.45 34.2189C1078.27 38.885 998.091 46.6623 985.988 40.4405C973.885 34.2188 917.909 40.4405 911.858 40.4405C905.806 40.4405 904.293 34.2189 890.677 29.5528C877.062 24.8867 858.907 34.2189 852.856 29.5528C846.804 24.8867 839.24 24.8865 825.624 24.8865C812.008 24.8865 796.88 34.2189 789.315 29.5528C781.751 24.8867 775.7 24.8865 769.648 24.8865H743.93C733.339 24.8865 725.775 29.5528 716.698 29.5528C707.621 29.5528 706.108 27.9973 697.031 24.8865C687.953 21.7757 678.876 34.2189 674.338 34.2189C669.799 34.2189 650.132 40.4405 641.055 40.4405C631.977 40.4405 618.361 59.1054 603.233 59.1054C588.104 59.1054 584.85 45.6166 579.027 40.4405C566.779 29.5528 524.564 34.2189 500.358 34.2189C480.993 34.2189 451.946 46.6621 439.843 52.8838C430.262 52.8838 408.073 54.1281 395.97 59.1054C380.842 65.327 321.84 71.5487 312.763 68.4379C303.685 65.3271 262.838 59.1054 258.299 59.1054C253.761 59.1054 249.222 54.4392 243.171 52.8838C237.119 51.3283 231.068 57.55 226.529 59.1054C221.991 60.6608 205.349 66.8825 193.246 65.3271C181.143 63.7716 173.579 87.1028 162.989 87.1028C152.399 87.1028 141.809 96.4352 134.244 96.4352H96.4228C90.3713 96.4352 91.8842 107.323 84.3198 107.323C76.7555 107.323 76.7554 105.768 63.1396 107.323C49.5239 108.878 44.9853 122.877 38.9338 122.877C32.8824 122.877 20.7794 118.211 17.7537 118.211C15.3331 118.211 3.6336 129.617 -1.91357 135.32Z" fill="#DDEAF8"/>
</svg>
