<svg width="401" height="213" viewBox="0 0 401 213" fill="none" xmlns="http://www.w3.org/2000/svg">
<rect x="0.397461" y="52.2207" width="400.602" height="88.6264" fill="#DDEAF8"/>
<path d="M317.998 90.6674H328.836H342.556L338.577 92.1765H230.881L239.112 90.6674C241.125 90.6674 245.698 90.393 247.893 89.2955C250.637 87.9236 253.655 89.2955 256.261 89.2955H261.612C263.944 89.2955 266.414 90.6674 269.02 90.6674C271.627 90.6674 277.389 89.2955 280.407 88.1979C283.426 87.1004 287.541 89.2955 290.971 89.2955C294.401 89.2955 300.026 90.6674 301.809 90.6674C303.593 90.6674 306.062 89.2955 309.767 89.2955C313.471 89.2955 316.489 90.6674 317.998 90.6674Z" fill="#AACBEE"/>
<path d="M63.4401 92.5554H15.8306H0.397461V78.4046H6.6979H9.5425C10.5905 78.4046 12.5368 79.4931 14.6328 79.4931C16.7289 79.4931 17.4774 78.4046 18.8249 77.8603C20.1723 77.316 21.0706 77.8603 22.5678 77.8603C24.0649 77.8603 24.3644 78.4046 26.1609 78.4046C27.9575 78.4046 27.6581 77.8603 28.5564 76.9078C29.4547 75.9553 30.353 77.8603 31.1016 77.8603C31.8501 77.8603 33.497 80.0374 35.7427 77.8603C36.641 77.316 36.7908 78.9488 38.7371 80.0374C40.6834 81.1259 39.6354 79.4931 39.9348 78.9488C40.2342 78.4045 40.6834 77.8603 41.8811 78.4046C42.8393 78.84 42.8792 79.3117 42.7794 79.4931C43.0289 79.1303 43.6178 78.4046 43.9771 78.4046H45.4743C45.624 78.7674 46.1031 79.602 46.8217 80.0374C47.5403 80.4728 49.1173 79.8559 49.816 79.4931C50.2153 79.1303 51.3132 78.4046 52.5109 78.4046C54.0081 78.4046 54.4572 79.4931 55.8046 79.4931C57.1521 79.4931 57.751 80.0374 58.799 80.0374C59.847 80.0374 60.7453 79.4931 61.7933 78.4046C62.6317 77.5337 64.039 78.7674 64.6379 79.4931C65.4863 79.6745 67.3627 79.9285 68.0813 79.4931C68.9796 78.9488 68.9796 78.8128 70.4768 78.4046C71.9739 77.9964 70.9259 80.0374 71.9739 80.0374H78.5614H80.358H83.2026C84.4003 80.0374 85.1489 80.8537 85.8975 80.0374C86.4964 79.3843 88.9417 80.3095 90.0895 80.8537C90.888 80.8991 92.6946 80.9626 93.533 80.8537C94.581 80.7177 96.0782 81.8062 97.5753 82.0783C99.0725 82.3505 99.0725 83.0308 100.57 82.6226C102.067 82.2144 101.917 84.2554 103.414 84.3915C104.612 84.5003 108.854 88.116 110.151 89.0231C108.654 89.9303 103.833 89.9702 101.917 89.9702C99.5216 89.9702 67.3328 92.5554 63.4401 92.5554Z" fill="#AACBEE"/>
<path d="M25.7836 5.43673C21.5281 5.43673 7.44101 1.34909 0.397461 0.911133V46.459H401V9.23238C394.739 7.57787 381.395 11.2178 378.108 9.23238C373.999 6.75061 357.271 5.43673 350.667 5.43673H334.379C328.216 5.43673 315.156 0.911133 306.939 0.911133C298.721 0.911133 298.575 5.43673 291.824 9.23238C285.074 13.028 271.427 9.23238 266.145 9.23238C260.862 9.23238 238.117 9.23238 232.835 5.43673C227.552 1.64107 211.998 5.43673 206.128 5.43673C200.258 5.43673 194.389 9.23238 189.84 9.23238H164.013C159.024 9.23238 154.035 9.23238 146.111 5.43673C138.187 1.64107 139.067 5.43673 134.078 5.43673H121.165H110.746C105.757 5.43673 104.143 9.23238 100.768 9.23238H78.757C74.208 9.23238 54.5448 5.43673 49.5556 5.43673H25.7836Z" fill="#669FE1"/>
<path d="M22.3261 18.9107C15.9977 14.6553 5.98999 19.7912 0.397461 18.9107V52.2208H401V25.514C398.252 22.0412 389.927 19.351 383.099 17.0031C374.563 14.0683 374.214 12.1606 365.678 12.1606C357.142 12.1606 350.372 12.8943 339.923 15.0955C329.474 17.2966 305.338 15.0955 299.745 15.0955C294.153 15.0955 285.617 17.0032 280.76 17.0032C275.903 17.0032 267.367 18.9107 261.039 17.0032C254.711 15.0956 244.703 18.9107 240.288 17.0032C235.873 15.0956 232.782 17.0032 229.103 18.9107C225.423 20.8183 218.948 18.9107 211.589 18.9107C204.231 18.9107 185.098 16.5629 177.74 17.0032C170.381 17.4434 158.019 21.9923 152.72 21.9923C147.422 21.9923 123.286 21.9923 114.75 18.9107C106.214 15.8292 80.9005 24.4869 72.8061 21.9923C64.7116 19.4977 41.4584 21.5521 39.398 21.9923C37.3376 22.4326 28.6545 23.1662 22.3261 18.9107Z" fill="#99BFEB"/>
<rect x="0.123047" y="133.608" width="400.876" height="79.0617" fill="#1C4E89"/>
<path d="M146.117 128.778C145.707 128.778 141.948 132.799 141.008 133.735H400.999V114.482H396.385C394.591 114.482 387.157 117.29 384.594 117.29C382.03 117.29 379.03 118.056 377.081 118.056C375.132 118.056 368.957 117.29 366.394 117.29C363.831 117.29 359.942 118.311 358.147 118.056C356.353 117.801 354.09 118.566 353.065 119.332C352.04 120.098 349.22 119.332 345.631 120.098C342.043 120.864 332.532 118.563 330.304 118.563C328.077 118.563 330.459 120.353 321.952 117.29C320.987 116.943 316.683 116.013 314.376 115.247C312.069 114.481 308.993 116.013 307.968 115.247C306.943 114.481 305.661 114.481 303.354 114.481C301.047 114.481 298.484 116.013 297.202 115.247C295.921 114.481 294.895 114.481 293.87 114.481H289.512C287.718 114.481 286.436 115.247 284.898 115.247C283.36 115.247 283.104 114.992 281.566 114.481C280.028 113.971 278.49 116.013 277.721 116.013L266.962 116.014C265.424 116.014 256.43 118.563 253.867 118.563C251.303 118.563 247.089 116.014 243.713 116.014C240.974 116.014 239.044 114.993 234.942 114.993C231.661 114.993 226.74 117.035 224.689 118.056C222.638 119.077 217.085 119.536 215.035 120.353C212.471 121.374 202.47 122.396 200.932 121.885C199.394 121.374 192.473 120.353 191.704 120.353C190.935 120.353 190.166 119.587 189.141 119.332C188.115 119.077 187.09 120.098 186.321 120.353C185.552 120.609 181.029 122.14 178.978 121.885C176.927 121.63 172.519 123.672 170.725 123.672C168.93 123.672 167.136 125.204 165.854 125.204H159.446C158.421 125.204 158.677 126.991 157.395 126.991C156.114 126.991 156.114 126.735 153.807 126.991C151.5 127.246 150.731 129.544 149.705 129.544C148.68 129.544 146.629 128.778 146.117 128.778Z" fill="#1C4E89"/>
<path d="M178.091 130.667C178.378 130.667 181.002 133.504 181.659 134.164H0.122696V120.582H3.34435C4.59721 120.582 9.78767 122.563 11.5775 122.563C13.3673 122.563 15.4626 123.103 16.8235 123.103C18.1843 123.103 22.4953 122.563 24.2851 122.563C26.0749 122.563 28.7905 123.283 30.0434 123.103C31.2962 122.923 32.8762 123.463 33.5921 124.003C34.308 124.544 36.2768 124.003 38.7826 124.544C41.2883 125.084 47.9291 123.461 49.4844 123.461C51.0397 123.461 49.3763 124.724 55.3167 122.563C55.9903 122.318 58.9951 121.662 60.6059 121.122C62.2167 120.581 64.3645 121.662 65.0804 121.122C65.7964 120.581 66.6913 120.581 68.3021 120.581C69.9129 120.581 71.7027 121.662 72.5976 121.122C73.4925 120.581 74.2085 120.581 74.9244 120.581H77.967C79.2199 120.581 80.1148 121.122 81.1887 121.122C82.2626 121.122 82.4416 120.941 83.5154 120.581C84.5893 120.221 85.6632 121.662 86.2001 121.662L93.7127 121.662C94.7866 121.662 101.066 123.461 102.856 123.461C104.646 123.461 107.588 121.662 109.946 121.662C111.858 121.662 113.206 120.942 116.07 120.942C118.361 120.942 121.797 122.383 123.229 123.103C124.661 123.823 128.538 124.147 129.97 124.724C131.76 125.444 138.743 126.164 139.817 125.804C140.891 125.444 145.724 124.724 146.261 124.724C146.798 124.724 147.335 124.183 148.05 124.003C148.766 123.823 149.482 124.544 150.019 124.724C150.556 124.904 153.715 125.984 155.146 125.804C156.578 125.624 159.656 127.065 160.909 127.065C162.162 127.065 163.415 128.146 164.31 128.146H168.784C169.5 128.146 169.321 129.406 170.216 129.406C171.111 129.406 171.111 129.226 172.722 129.406C174.333 129.586 174.87 131.207 175.586 131.207C176.302 131.207 177.733 130.667 178.091 130.667Z" fill="#1C4E89"/>
<path d="M304.453 115.954V118.652V120.656H215.627V115.055H215.935V114.413H216.706L217.143 113.411V111.202L217.734 110.585V109.891H217.348V107.22L216.578 106.449L217.477 104.522V101.799H217.888V100.54L217.991 99.8978L218.273 99.4611L218.53 99.1271V98.2536H218.273V97.9453H218.53L218.916 93.2183L219.199 90.3923L219.378 93.2183L219.789 97.9453H219.969V98.2536H219.789V99.1271L220.149 99.4611L220.458 99.8978L220.663 100.54V101.799H220.92V104.522L221.794 106.449L221.023 107.22V109.891H220.56V110.585L221.023 111.202V113.411L221.331 114.413H221.999V115.055H222.282V116.674H251.933V116.288L253.038 115.441V114.413L253.629 114.208V111.767L254.169 111.202V109.557H254.503V102.749L253.449 101.645L253.629 98.9473H254.914V97.8426L256.353 96.3525V94.8111L257.098 94.0404L257.021 90.5721L256.045 89.75L256.147 86.4873H255.967V85.4597H257.021L258.82 83.2246V80.8611L258.177 80.0647L259.205 79.0113L259.693 76.0055H259.847V75.4147L259.539 75.0807L259.924 74.4898V72.0235L259.693 71.7666H258.588V71.4583H259.693L260.027 71.0473V69.3003H260.387V71.0473L260.747 71.4583H262.083V71.7666H260.747L260.567 72.0235L260.515 74.4898L260.952 75.0807L260.567 75.4147V76.0055H260.747L261.312 79.0113L262.365 80.0647L261.877 80.8611V83.2246L263.624 85.4597H264.704V86.4873H264.549V89.75L263.83 90.5721V94.0404L264.549 94.8111V96.3525L265.937 97.8426V98.9473H267.299L267.607 101.645L266.862 102.749V109.557H267.068V111.202L267.684 111.767V114.208L268.044 114.413V115.441L269.534 115.954V116.288H294.175V115.954L293.456 114.901L295.177 113.462V112.255L295.409 111.947V106.629H295.306V105.987L294.843 105.267L295.409 104.188L295.666 101.722L295.845 101.414V100.823H296.077V96.5837L296.308 96.1984L296.411 94.8882L296.796 93.8348L297.336 93.1412L297.747 92.5246L298.081 92.3191V91.3172H297.875V91.0346H298.081V90.4437L298.209 89.9556V88.2857L298.081 88.0288L298.209 87.8232L298.312 87.0782L298.723 86.4616L299.109 87.0782L299.211 87.8232L299.314 88.0288L299.211 88.2857V89.9556L299.314 90.4437V91.0346H299.52V91.3172H299.314V92.3191L299.674 92.5246L300.214 93.1412L300.753 93.8348L301.318 94.8882V96.1984L301.498 96.5837V100.823H301.704V101.414L301.935 101.722L302.218 104.111L302.989 105.267L302.629 105.987V106.629H302.475V111.947L302.757 112.255V113.462L305.018 114.901L304.453 115.954Z" fill="#1C4E89"/>
</svg>
