<svg width="1461" height="772" viewBox="0 0 1461 772" fill="none" xmlns="http://www.w3.org/2000/svg">
<rect x="1" y="187" width="1460" height="323" fill="#DDEAF8"/>
<path d="M1158.5 327.12H1198H1248L1233.5 332.62H841L871 327.12C878.333 327.12 895 326.12 903 322.12C913 317.12 924 322.12 933.5 322.12H953C961.5 322.12 970.5 327.12 980 327.12C989.5 327.12 1010.5 322.12 1021.5 318.12C1032.5 314.12 1047.5 322.12 1060 322.12C1072.5 322.12 1093 327.12 1099.5 327.12C1106 327.12 1115 322.12 1128.5 322.12C1142 322.12 1153 327.12 1158.5 327.12Z" fill="#AACBEE"/>
<path d="M230.76 334H57.2461H1V282.427H23.9621H34.3292C38.1487 282.427 45.242 286.394 52.881 286.394C60.52 286.394 63.2482 282.427 68.159 280.443C73.0697 278.46 76.3436 280.443 81.8 280.443C87.2564 280.443 88.3477 282.427 94.8954 282.427C101.443 282.427 100.352 280.443 103.626 276.972C106.899 273.501 110.173 280.443 112.902 280.443C115.63 280.443 121.632 288.378 129.816 280.443C133.09 278.46 133.636 284.41 140.729 288.378C147.823 292.345 144.003 286.394 145.094 284.41C146.186 282.427 147.823 280.443 152.188 282.427C155.68 284.014 155.825 285.733 155.462 286.394C156.371 285.072 158.517 282.427 159.827 282.427H165.283C165.829 283.749 167.575 286.791 170.194 288.378C172.813 289.965 178.56 287.716 181.107 286.394C182.562 285.072 186.563 282.427 190.928 282.427C196.385 282.427 198.022 286.394 202.932 286.394C207.843 286.394 210.026 288.378 213.845 288.378C217.665 288.378 220.938 286.394 224.758 282.427C227.814 279.253 232.943 283.749 235.125 286.394C238.217 287.055 245.056 287.981 247.675 286.394C250.949 284.411 250.949 283.915 256.405 282.427C261.862 280.939 258.042 288.378 261.862 288.378H285.87H292.417H302.785C307.15 288.378 309.878 291.353 312.606 288.378C314.789 285.997 323.701 289.369 327.884 291.353C330.794 291.518 337.378 291.75 340.434 291.353C344.253 290.857 349.71 294.824 355.166 295.816C360.623 296.808 360.623 299.287 366.079 297.8C371.535 296.312 370.99 303.75 376.446 304.246C380.811 304.643 396.271 317.821 401 321.126C395.544 324.432 377.974 324.578 370.99 324.578C362.259 324.578 244.947 334 230.76 334Z" fill="#AACBEE"/>
<path d="M93.5201 16.4936C78.011 16.4936 26.6703 1.59615 1 0V166H1461V30.3269C1438.18 24.297 1389.55 37.5628 1377.57 30.3269C1362.6 21.2821 1301.63 16.4936 1277.56 16.4936H1218.2C1195.74 16.4936 1148.14 0 1118.19 0C1088.25 0 1087.71 16.4936 1063.11 30.3269C1038.51 44.1603 988.773 30.3269 969.52 30.3269C950.267 30.3269 867.374 30.3269 848.121 16.4936C828.868 2.66026 772.18 16.4936 750.788 16.4936C729.396 16.4936 708.004 30.3269 691.425 30.3269H597.3C579.117 30.3269 560.934 30.3269 532.055 16.4936C503.176 2.66026 506.385 16.4936 488.201 16.4936H441.139H403.168C384.985 16.4936 379.103 30.3269 366.802 30.3269H286.582C270.004 30.3269 198.341 16.4936 180.158 16.4936H93.5201Z" fill="#669FE1"/>
<path d="M80.9192 65.6009C57.8552 50.0917 21.3821 68.8097 1 65.6009V187H1461V89.6666C1450.99 77.0097 1420.65 67.2053 1395.76 58.6485C1364.65 47.9525 1363.38 41 1332.27 41C1301.16 41 1276.49 43.674 1238.41 51.696C1200.32 59.718 1112.36 51.696 1091.98 51.696C1071.6 51.696 1040.49 58.6486 1022.79 58.6486C1005.09 58.6486 973.976 65.6009 950.912 58.6486C927.848 51.6963 891.375 65.6009 875.284 58.6486C859.192 51.6963 847.929 58.6486 834.519 65.6009C821.11 72.5531 797.51 65.6009 770.691 65.6009C743.873 65.6009 674.145 57.0442 647.326 58.6486C620.508 60.253 575.453 76.8317 556.143 76.8317C536.834 76.8317 448.869 76.8317 417.76 65.6009C386.65 54.37 294.395 85.9233 264.894 76.8317C235.394 67.7402 150.647 75.2274 143.138 76.8317C135.629 78.4361 103.983 81.11 80.9192 65.6009Z" fill="#99BFEB"/>
<rect y="483.613" width="1461" height="288.142" fill="#1C4E89"/>
<path d="M532.078 466.009C530.583 466.009 516.884 480.666 513.458 484.077H1461V413.908H1444.18C1437.64 413.908 1410.55 424.142 1401.21 424.142C1391.87 424.142 1380.93 426.934 1373.83 426.934C1366.73 426.934 1344.22 424.142 1334.88 424.142C1325.54 424.142 1311.37 427.864 1304.83 426.934C1298.29 426.003 1290.04 428.794 1286.3 431.585C1282.57 434.376 1272.29 431.585 1259.21 434.376C1246.13 437.167 1211.47 428.782 1203.35 428.782C1195.23 428.782 1203.92 435.306 1172.91 424.142C1169.39 422.876 1153.71 419.488 1145.3 416.697C1136.9 413.906 1125.68 419.488 1121.95 416.697C1118.21 413.906 1113.54 413.906 1105.13 413.906C1096.72 413.906 1087.38 419.488 1082.71 416.697C1078.04 413.906 1074.3 413.906 1070.57 413.906H1054.69C1048.15 413.906 1043.47 416.697 1037.87 416.697C1032.26 416.697 1031.33 415.767 1025.72 413.906C1020.12 412.045 1014.51 419.488 1011.71 419.488C1008.91 419.488 978.105 419.491 972.499 419.491C966.894 419.491 934.117 428.782 924.775 428.782C915.433 428.782 900.074 419.491 887.769 419.491C877.787 419.491 870.752 415.769 855.804 415.769C843.846 415.769 825.91 423.212 818.436 426.934C810.962 430.655 790.724 432.329 783.25 435.306C773.908 439.028 737.458 442.749 731.853 440.889C726.248 439.028 701.024 435.306 698.222 435.306C695.419 435.306 692.616 432.515 688.88 431.585C685.143 430.655 681.406 434.376 678.603 435.306C675.801 436.237 659.315 441.819 651.841 440.889C644.368 439.958 628.301 447.402 621.762 447.402C615.222 447.402 608.683 452.984 604.012 452.984H580.657C576.92 452.984 577.854 459.497 573.183 459.497C568.512 459.497 568.512 458.566 560.104 459.497C551.696 460.427 548.894 468.8 545.157 468.8C541.42 468.8 533.946 466.009 532.078 466.009Z" fill="#1C4E89"/>
<path d="M648.61 472.896C649.653 472.896 659.219 483.236 661.61 485.643H-0.000244141V436.14H11.7411C16.3073 436.14 35.2239 443.36 41.7469 443.36C48.2699 443.36 55.9062 445.33 60.8659 445.33C65.8256 445.33 81.537 443.36 88.0601 443.36C94.583 443.36 104.48 445.986 109.046 445.33C113.612 444.673 119.37 446.642 121.979 448.611C124.589 450.58 131.764 448.611 140.896 450.58C150.028 452.549 174.231 446.634 179.899 446.634C185.567 446.634 179.505 451.236 201.155 443.36C203.61 442.467 214.561 440.077 220.432 438.108C226.302 436.139 234.13 440.077 236.739 438.108C239.348 436.139 242.61 436.139 248.481 436.139C254.351 436.139 260.874 440.077 264.136 438.108C267.397 436.139 270.006 436.139 272.616 436.139H283.705C288.271 436.139 291.532 438.108 295.446 438.108C299.36 438.108 300.012 437.452 303.926 436.139C307.84 434.826 311.753 440.077 313.71 440.077C315.667 440.077 337.176 440.079 341.09 440.079C345.004 440.079 367.89 446.634 374.413 446.634C380.936 446.634 391.66 440.079 400.252 440.079C407.222 440.079 412.134 437.453 422.571 437.453C430.921 437.453 443.445 442.704 448.663 445.33C453.882 447.955 468.013 449.136 473.231 451.236C479.754 453.862 505.205 456.487 509.119 455.174C513.033 453.862 530.645 451.236 532.602 451.236C534.558 451.236 536.515 449.267 539.125 448.611C541.734 447.955 544.343 450.58 546.3 451.236C548.257 451.893 559.768 455.831 564.986 455.174C570.204 454.518 581.423 459.769 585.989 459.769C590.555 459.769 595.121 463.707 598.383 463.707H614.69C617.299 463.707 616.647 468.302 619.908 468.302C623.17 468.302 623.17 467.645 629.041 468.302C634.911 468.958 636.868 474.865 639.477 474.865C642.087 474.865 647.305 472.896 648.61 472.896Z" fill="#1C4E89"/>
<path d="M1109.14 419.276V429.108V436.411H785.409V415.999H786.532V413.659H789.342L790.934 410.007V401.955L793.088 399.708V397.18H791.683V387.442L788.874 384.633L792.151 377.611V367.686H793.649V363.099L794.024 360.758L795.054 359.166L795.99 357.949V354.765H795.054V353.642H795.99L797.395 336.414L798.425 326.115L799.081 336.414L800.579 353.642H801.235V354.765H800.579V357.949L801.89 359.166L803.014 360.758L803.763 363.099V367.686H804.699V377.611L807.883 384.633L805.074 387.442V397.18H803.388V399.708L805.074 401.955V410.007L806.198 413.659H808.632V415.999H809.663V421.898H917.728V420.494L921.755 417.404V413.659L923.909 412.91V404.015L925.875 401.955V395.963H927.093V371.151L923.253 367.125L923.909 357.293H928.591V353.267L933.835 347.837V342.219L936.551 339.41L936.27 326.77L932.711 323.774L933.086 311.883H932.43V308.138H936.27L942.825 299.992V291.378L940.484 288.476L944.229 284.637L946.009 273.682H946.571V271.529L945.447 270.311L946.852 268.158V259.169L946.009 258.233H941.982V257.11H946.009L947.226 255.611V249.245H948.537V255.611L949.848 257.11H954.718V258.233H949.848L949.193 259.169L949.005 268.158L950.597 270.311L949.193 271.529V273.682H949.848L951.908 284.637L955.748 288.476L953.968 291.378V299.992L960.336 308.138H964.269V311.883H963.707V323.774L961.085 326.77V339.41L963.707 342.219V347.837L968.764 353.267V357.293H973.727L974.851 367.125L972.135 371.151V395.963H972.885V401.955L975.132 404.015V412.91L976.443 413.659V417.404L981.874 419.276V420.494H1071.68V419.276L1069.06 415.438L1075.33 410.194V405.794L1076.17 404.67V385.289H1075.8V382.948L1074.11 380.326L1076.17 376.394L1077.11 367.406L1077.77 366.282V364.128H1078.61V348.68L1079.45 347.275L1079.83 342.5L1081.23 338.661L1083.2 336.133L1084.7 333.886L1085.91 333.137V329.485H1085.16V328.455H1085.91V326.302L1086.38 324.523V318.437L1085.91 317.501L1086.38 316.752L1086.76 314.036L1088.25 311.789L1089.66 314.036L1090.03 316.752L1090.41 317.501L1090.03 318.437V324.523L1090.41 326.302V328.455H1091.16V329.485H1090.41V333.137L1091.72 333.886L1093.69 336.133L1095.65 338.661L1097.71 342.5V347.275L1098.37 348.68V364.128H1099.12V366.282L1099.96 367.406L1100.99 376.113L1103.8 380.326L1102.49 382.948V385.289H1101.93V404.67L1102.96 405.794V410.194L1111.2 415.438L1109.14 419.276Z" fill="#1C4E89"/>
</svg>
