<?xml version="1.0" encoding="utf-8"?>
<!-- Generator: Adobe Illustrator 28.0.0, SVG Export Plug-In . SVG Version: 6.00 Build 0)  -->
<svg version="1.1" id="Calque_1" xmlns="http://www.w3.org/2000/svg" xmlns:xlink="http://www.w3.org/1999/xlink" x="0px" y="0px"
	 viewBox="0 0 1506 1404" style="enable-background:new 0 0 1506 1404;" xml:space="preserve">
<style type="text/css">
	.st0{clip-path:url(#SVGID_00000057856195727316095530000003543222344441399479_);}
	.st1{fill:#1C4E89;fill-opacity:0.15;}
	.st2{fill:#1C4E89;}
	.st3{opacity:0.5;}
	.st4{fill:none;stroke:#F5F5F5;stroke-width:3;stroke-linecap:round;}
</style>
<g>
	<defs>
		<rect id="SVGID_1_" width="1506" height="1404"/>
	</defs>
	<clipPath id="SVGID_00000023980492980260348880000006024478959629205669_">
		<use xlink:href="#SVGID_1_"  style="overflow:visible;"/>
	</clipPath>
	<g style="clip-path:url(#SVGID_00000023980492980260348880000006024478959629205669_);">
		<path class="st1" d="M1178.4,1043.1c-16.9,38.6-29.8,56.3-69.2,68.7c-28.8-19.2-60.6-63.9-115.8-151c-28.3,1.6-43.4,0.2-69.9-3.7
			c-18.5-4-19.2-9.5-10.6-22.7c10-11.4,19.4-17,38.3-26.5c-2.9-0.5-6.2-1-9.8-1.5c-17.7,3.8-30.4-1.6-54.4-14.4
			c-25.8-17.8-38.4-29.6-57.2-53.8c-16.3-22.8-12.5-28.8,15.2-28.7c19.8,3,40.4,11.3,83.4,30.3c-15.7-29.1-23.6-46.3-35.8-78.5
			c-27.3-68.2-45.4-106.1-81-173.3c-44.9-87.3-64-138.5-79.3-236.4c-10.9-34.8-15.7-54.6-21.4-90.4c-2.3-21.7-4.5-33.6-9.7-54.3
			c-8.9-8-20.1-15.4-36.9-25.2c-24.9-12.9-36.5-20.8-54.8-35.8c-23.3-23.7-36.1-36.9-40.7-53.7c23.1,13.5,39,21.1,75.9,34.6
			c24.7,7,40.2,10.3,43.9,25.4c3.6-1.2,5.1-0.8,7,1.9c7.2-4.5,11.3-6.6,20.4-0.9c16.6,6.8,27,10,48.8,13.6
			c2.5,8.8,3.4,13.4,0.9,18.6c-0.7,9.2,0.1,12.2,3.1,15c27.6,18.9,55.7,46.2,101.6,96.2c69.3,82.4,102.2,117.4,144.8,148.7
			c36.9,19,57.6,30.3,91.5,16.1c23-9.7,36.3-15.7,49.5-14.5c10.7,20.3,6.7,49.1-5.4,109c-13.4,50.7-7.3,89.9,13.4,167.7
			C1205.7,853,1210.3,923.2,1178.4,1043.1z"/>
		<rect y="255" class="st2" width="1506" height="1037"/>
		<path class="st2" d="M413.4,219c-12.6,13.3-25.1,13.3-37.7,0c-12.5,13.3-25,13.3-37.6,0c-12.5,13.3-25,13.3-37.6,0
			c-12.5,13.3-25,13.3-37.6,0c-12.5,13.3-25,13.3-37.6,0c-12.5,13.3-25,13.3-37.6,0c-12.5,13.3-25,13.3-37.6,0
			c-12.5,13.3-25,13.3-37.6,0c-12.5,13.3-25,13.3-37.6,0c-12.5,13.3-25,13.3-37.6,0c-12.5,13.3-25,13.3-37.6,0v126h1505V219
			c-12.6,13.3-25.1,13.3-37.7,0c-12.6,13.3-25.1,13.3-37.7,0c-12.6,13.3-25.1,13.3-37.7,0c-12.6,13.3-25.1,13.3-37.7,0
			c-12.6,13.3-25.1,13.3-37.7,0c-12.5,13.3-25.1,13.3-37.7,0c-12.6,13.3-25.1,13.3-37.7,0c-12.6,13.3-25.1,13.3-37.7,0
			c-12.6,13.3-25.1,13.3-37.7,0c-12.6,13.3-25.1,13.3-37.7,0c-12.5,13.3-25,13.3-37.6,0c-12.5,13.3-25.1,13.3-37.6,0
			c-12.5,13.3-25,13.3-37.6,0c-12.5,13.3-25,13.3-37.6,0c-12.5,13.3-25,13.3-37.6,0c-12.5,13.3-25,13.3-37.6,0
			c-12.5,13.3-25,13.3-37.6,0c-12.5,13.3-25,13.3-37.6,0c-12.5,13.3-25,13.3-37.6,0c-12.5,13.3-25,13.3-37.6,0
			c-12.6,13.3-25.1,13.3-37.7,0c-12.6,13.3-25.1,13.3-37.7,0c-12.6,13.3-25.1,13.3-37.7,0c-12.6,13.3-25.1,13.3-37.7,0
			c-12.6,13.3-25.1,13.3-37.7,0c-12.6,13.3-25.1,13.3-37.7,0c-12.6,13.3-25.1,13.3-37.7,0c-12.6,13.3-25.1,13.3-37.7,0
			C438.5,232.3,426,232.3,413.4,219z"/>
		<g class="st3">
			<path class="st4" d="M260.8,258.9c8.4-1.2,10.8-8.9,12.9-16.1c2.3-7.8,4-15,4-23.1c0-6.2,6.9-7.6,7.9-13.9
				c0.7-4.5,0.1-9.3,0.2-13.9c0.2-9,14.4-11.2,19.7-16.5c5.3-5.3,9-12.1,13.3-18.2c5.9-8.4,12.6-15.7,19.3-23.3
				c11.7-13.4,33.3-14.9,49.5-17.4c9.7-1.5,19.6-2.4,29-5.6c11.8-4.1,22.6-9.9,34.2-14.5c14.9-5.9,29.6-0.2,45-0.4
				c7.6-0.1,15.2-4.4,21.1-8.9c3.2-2.5,8.1-5.8,10.1-9.4c2.6-4.8,1.1-13.1,0-18.1c-1.8-8.4-6.9-15.4-13.4-20.8
				c-7.3-6.1-12.3-11.9-14.8-21.4c-2-7.6,0.7-17.4,9.8-17.4c3.6,0,7.8-0.5,10.7,2.2c2.5,2.3,3.6,6.2,5.2,9.1
				c2.1,3.9,4.7,7.4,6.8,11.2c3.3,6.3,5.9,12.9,9,19.3c2.9,6.1,6.9,11.7,8.8,18.2c1.8,6.2,1.4,13.8-1.2,19.7
				c-2.9,6.5-5.9,11.1-6.6,18.6c-0.8,7.6,3.7,9.6,7.4,15.3c5.3,8,6.6,23.5-1.7,29.8c-7.1,5.4-17.1,8.3-25.5,10.8
				c-8.1,2.5-17,7.4-25.7,7.7c-7,0.2-14.7-0.4-21.6,1c-8.8,1.8-18.8,5.6-21.7,15.2c-2,6.6-3.3,13-4.8,19.7
				c-1.9,8.5-2.2,15.5-9.6,21.5c-7.3,5.9-19.7,11.5-23,21.2c-2.4,7.1,0.3,15.7-1,23.1c-1.8,10.1-11,17.6-18.3,24
				c-8.6,7.6-19.7,12.6-26.9,21.8c-4.8,6.1-4.1,9.4-2,16.4c1.6,5.2,0.7,11.4-5.5,12.5c-13.9,2.7-22.4,15-18.1,28.8
				c1.1,3.5,4.9,7.6,5.2,11.1c0.4,4-2.7,7.1-3.4,10.9c-1.4,7.9,5,10.4,11.5,13.1c9.8,4,19,9.2,28.2,14.3c8.4,4.6,19.3,8.7,25.4,16.6
				c5.8,7.6,7.7,17.3,10.4,26.3c2.5,8.1,4.3,15.7,4.8,24.1c0.9,13.7-2.5,26.9-1.8,40.7c0.6,11.2,5.4,21.3-4,30.1
				c-9.4,8.7-22.2,13.3-34.2,16.9c-20.3,6.2-41.9,7.4-63.1,5.8c-8.7-0.6-17.4-3-24.9-7.6c-6-3.7-11.4-6.8-18.2-8.8
				c-22-6.5-41.9,1.1-63.6,5.2c-27.6,5.2-55.5,7.1-83.5,5.3c-12-0.8-27.1-1.9-32.4-14.3c-2.7-6.4-5.4-9.5-11.5-13.2
				c-4.8-3-9.7-6.3-15.4-7.1c-7.6-1.1-15.5-0.5-23.1-0.5c-18.5,0-37,0-55.5,0c-22.5,0-44.8,1.7-67.2,2.6c-12.9,0.5-25.7,0.4-38.6,1
				c-14.6,8.2-11.3-3.4-7.8-10.2c2.2-4.4,2.4-7.9,2.4-12.6c0-4.9-10.7-4-13.7-4.2c-6.7-0.3-13.2-1.2-19.9-0.6
				c-11.8,1-22.1,7-31.7,13.5c-6.8,4.6-11.6,11.6-19.6,14.2c-10,3.3-17,3.5-26.5-2.7c-3.5-2.3-5.2-7.1-4.6-11.2
				c0.7-4.5,2.8-8.9,4-13.3c1.9-6.9,3.8-13.7,6-20.5c2.3-7.2,4.9-17.3,12.4-21.1c8.3-4.3,21.1-7.4,23.1-18.3
				c4-21.4-13.7-56.4,20.4-60c4.6-0.5,6.9,2.2,9,6.2c3.5,6.7,6.6,15.5,14.7,17.8c5.1,1.5,15.7,2.2,20.1-1.2c5-3.9,2.4-11.3,9.3-14.4
				c4.8-2.2,8.3-1.4,12.3,1.5c7.8,5.7,14.3,9.5,24.1,10.4c10.9,1,15.1-5,15.3-15.7c0.2-10.5,3.5-18.2,11.5-25.5
				c6.7-6.1,16.2-12.4,25.2-14c16.7-3,34.5-0.4,51.4-1.3c10.4-0.6,26.8,1.3,33.4-9c2.1-3.2,6.4-16.3,2.2-19.2
				c-7.1-4.9-19.4-1.5-27.4-2.2c-8.7-0.8-7.4-11.8-6.8-18.7c0.6-7.5,7.1-13,7.1-20.2c0-2.7-3.7-4.2-5.5-5.6
				c-3.4-2.7-4.8-3.6-9.2-3.6c-15.2,0-25.6,8.1-37.2,17.1c-2.6,2-6.3,6.1-9.9,6.3c-6.2,0.3-12.7,0.2-18.9-0.2
				c-7.1-0.4-22.4-1.5-23.8-10.8c-2.8-18,4.1-38.1,19-49.1c8.7-6.4,19.9-10.1,29.7-14.3c6-2.6,14.5-7.7,12.9-15.9
				c-1.7-8.5-11.7-10-14.7-17c-3.7-9,10.1-13.8,14.1-20c3.9-5.9,4.4-12.5-0.4-18c-5.2-6.1-12.6-6.7-11.6-16.7
				c1.2-12.2,23.1-23.4,32.6-13.8c3.4,3.4,6.4,7.6,9.2,11.6c3.2,4.5,4.2,10.1,7.2,14.6c4.5,6.7,20.6,4,27.1,3.6
				c6-0.4,8.6-2.6,14,0.7c8.6,5.3,6.8,11.6,3.2,19.8c-4.7,10.8,0.7,18.3,12.2,18.4c6.1,0.1,12.2,0,18.3,0c2.3,0,4.8-0.4,6.8,0.9
				c8.8,5.7,16.2,17.5,10,27.5c-6.4,10.4-18.2,18.8-28,25.8c-7.6,5.4-16.3,10.6-23.1,16.9c-7.5,6.9-11.1,15.1-14.7,24.4
				c-1.6,4.1-2.6,8.2-2.3,12.6c0.4,5.6,4.6,5.9,9.5,6.2c8.8,0.5,19.5,0.6,25.8-6.6c5.8-6.7,10-14.5,16.4-20.9
				c6.2-6.3,12.8-11.3,21.8-11.8c9-0.5,17.9,1.8,26.9-0.1c10.6-2.2,7.5-7.5,1.3-14.1c-6.8-7.1-12.7-12.8-13.2-23.3
				c-0.3-4.9,0.6-7.7,5.5-9.6c11.4-4.3,18.8,3.2,22,13.9c2.5,8.1,2.3,16.7,9.4,22.4c5.5,4.4,12.1,6.6,19.1,6.6
				c15.3,0,29.1-10.5,44.6-10.5c7.4,0,14.3,3.2,21.8,3.2"/>
			<path class="st4" d="M381.9,170.5c-9.5,2.8-18.1,13.9-17.5,23.9c0.4,6.2,3.6,13.5,10.3,14.5c6.7,1,14.6,1.5,19.9-3.6
				c5.8-5.5,7.2-15.6,7.2-23.2c0-10.7-12.5-11.7-20.6-11.7"/>
		</g>
		<g class="st3">
			<path class="st4" d="M1361.5,376.4c-6.6,0.9-8.4,7-10,12.5c-1.8,6.1-3.1,11.7-3.1,18c0,4.8-5.4,5.9-6.1,10.8
				c-0.6,3.5,0,7.3-0.1,10.8c-0.2,7-11.2,8.7-15.4,12.9c-4.1,4.1-7,9.4-10.4,14.2c-4.6,6.5-9.8,12.2-15.1,18.2
				c-9.1,10.4-25.9,11.6-38.6,13.5c-7.6,1.2-15.2,1.9-22.6,4.4c-9.2,3.2-17.6,7.7-26.6,11.3c-11.6,4.6-23,0.2-35,0.3
				c-5.9,0.1-11.8,3.4-16.4,6.9c-2.5,1.9-6.3,4.5-7.9,7.3c-2,3.7-0.8,10.2,0,14.1c1.4,6.5,5.4,12,10.4,16.2
				c5.7,4.8,9.6,9.3,11.5,16.6c1.6,6-0.6,13.6-7.7,13.6c-2.8,0-6.1,0.4-8.3-1.7c-1.9-1.8-2.8-4.8-4.1-7.1c-1.6-3-3.7-5.7-5.3-8.8
				c-2.6-4.9-4.6-10-7-15c-2.2-4.7-5.4-9.1-6.8-14.2c-1.4-4.8-1.1-10.8,1-15.4c2.2-5.1,4.5-8.7,5.1-14.5c0.6-5.9-2.9-7.5-5.8-11.9
				c-4.1-6.2-5.1-18.3,1.3-23.2c5.5-4.2,13.3-6.5,19.9-8.4c6.3-1.9,13.3-5.8,20-6c5.5-0.2,11.5,0.3,16.8-0.8
				c6.9-1.4,14.6-4.3,16.9-11.9c1.6-5.1,2.6-10.1,3.8-15.4c1.5-6.6,1.7-12.1,7.5-16.7c5.7-4.6,15.4-9,17.9-16.5
				c1.8-5.5-0.2-12.2,0.8-18c1.4-7.9,8.6-13.7,14.3-18.7c6.7-5.9,15.3-9.8,20.9-17c3.7-4.8,3.2-7.3,1.5-12.8c-1.3-4-0.6-8.8,4.2-9.8
				c10.8-2.1,17.4-11.7,14.1-22.4c-0.8-2.7-3.8-5.9-4.1-8.7c-0.3-3.1,2.1-5.5,2.7-8.5c1.1-6.2-3.9-8.1-8.9-10.2
				c-7.6-3.1-14.8-7.2-21.9-11.2c-6.5-3.6-15.1-6.8-19.8-12.9c-4.5-5.9-6-13.5-8.1-20.4c-1.9-6.3-3.3-12.2-3.8-18.8
				c-0.7-10.7,2-21,1.4-31.7c-0.4-8.7-4.2-16.6,3.1-23.4c7.3-6.8,17.3-10.4,26.7-13.2c15.8-4.8,32.6-5.8,49.1-4.5
				c6.7,0.5,13.6,2.3,19.4,5.9c4.7,2.9,8.9,5.3,14.2,6.8c17.1,5.1,32.7-0.9,49.5-4c21.5-4.1,43.2-5.5,65-4.2
				c9.3,0.6,21.1,1.5,25.2,11.2c2.1,5,4.2,7.4,8.9,10.3c3.7,2.3,7.6,4.9,12,5.5c5.9,0.9,12.1,0.4,18,0.4c14.4,0,28.8,0,43.2,0
				c17.5,0,34.9-1.3,52.3-2c10-0.4,20-0.3,30-0.8c11.4-6.4,8.8,2.7,6.1,8c-1.7,3.4-1.9,6.1-1.9,9.8c0,3.8,8.3,3.1,10.7,3.2
				c5.2,0.3,10.2,0.9,15.5,0.5c9.2-0.8,17.2-5.5,24.7-10.5c5.3-3.6,9-9,15.2-11c7.8-2.5,13.2-2.8,20.7,2.1c2.8,1.8,4.1,5.5,3.6,8.7
				c-0.6,3.5-2.2,7-3.1,10.4c-1.5,5.4-3,10.7-4.7,16c-1.8,5.6-3.8,13.5-9.6,16.4c-6.5,3.3-16.4,5.8-18,14.2
				c-3.1,16.6,10.7,43.9-15.8,46.7c-3.6,0.4-5.4-1.7-7-4.8c-2.7-5.2-5.1-12-11.4-13.9c-3.9-1.2-12.3-1.7-15.7,0.9
				c-3.9,3-1.9,8.8-7.2,11.2c-3.8,1.7-6.5,1.1-9.6-1.2c-6-4.4-11.1-7.4-18.8-8.1c-8.5-0.7-11.8,3.9-11.9,12.2
				c-0.2,8.2-2.8,14.2-9,19.8c-5.2,4.7-12.6,9.6-19.7,10.9c-13,2.3-26.8,0.3-40,1c-8.1,0.4-20.9-1-26,7c-1.6,2.5-5,12.7-1.7,15
				c5.6,3.8,15.1,1.2,21.3,1.7c6.8,0.6,5.8,9.2,5.3,14.6c-0.5,5.8-5.5,10.2-5.5,15.7c0,2.1,2.9,3.3,4.3,4.4c2.7,2.1,3.7,2.8,7.1,2.8
				c11.8,0,19.9-6.3,29-13.3c2-1.6,4.9-4.7,7.7-4.9c4.8-0.3,9.9-0.1,14.7,0.1c5.5,0.3,17.4,1.2,18.5,8.4c2.2,14-3.2,29.7-14.8,38.2
				c-6.7,5-15.5,7.9-23.1,11.2c-4.7,2-11.3,6-10,12.4c1.3,6.6,9.1,7.8,11.4,13.3c2.9,7-7.8,10.8-11,15.6c-3.1,4.6-3.4,9.7,0.3,14
				c4.1,4.7,9.8,5.2,9.1,13c-0.9,9.5-18,18.2-25.4,10.8c-2.7-2.7-5-6-7.2-9c-2.5-3.5-3.3-7.8-5.6-11.4c-3.5-5.2-16.1-3.1-21.1-2.8
				c-4.7,0.3-6.7,2.1-10.9-0.6c-6.7-4.1-5.3-9.1-2.5-15.4c3.7-8.4-0.5-14.3-9.5-14.3c-4.7,0-9.5,0-14.2,0c-1.8,0-3.7,0.3-5.3-0.7
				c-6.8-4.5-12.6-13.6-7.8-21.4c5-8.1,14.2-14.7,21.8-20.1c5.9-4.2,12.7-8.3,18-13.2c5.8-5.4,8.6-11.8,11.5-19
				c1.2-3.2,2-6.4,1.8-9.8c-0.3-4.4-3.5-4.6-7.4-4.8c-6.9-0.4-15.2-0.5-20.1,5.2c-4.5,5.2-7.8,11.3-12.8,16.3
				c-4.8,4.9-10,8.8-17,9.2c-7,0.4-14-1.4-20.9,0.1c-8.2,1.7-5.8,5.9-1,11c5.3,5.6,9.9,10,10.3,18.1c0.2,3.8-0.5,6-4.3,7.5
				c-8.9,3.4-14.7-2.5-17.2-10.8c-1.9-6.3-1.8-13-7.3-17.4c-4.3-3.4-9.4-5.2-14.9-5.2c-11.9,0-22.7,8.2-34.7,8.2
				c-5.8,0-11.1-2.5-16.9-2.5"/>
			<path class="st4" d="M1267.2,445.2c7.4-2.2,14.1-10.8,13.7-18.6c-0.3-4.8-2.8-10.5-8-11.3c-5.2-0.8-11.4-1.1-15.5,2.8
				c-4.5,4.3-5.6,12.1-5.6,18c0,8.3,9.7,9.1,16.1,9.1"/>
		</g>
		<path class="st2" d="M413.4,1278c-12.6,13.3-25.1,13.3-37.7,0c-12.5,13.3-25,13.3-37.6,0c-12.5,13.3-25,13.3-37.6,0
			c-12.5,13.3-25,13.3-37.6,0c-12.5,13.3-25,13.3-37.6,0c-12.5,13.3-25,13.3-37.6,0c-12.5,13.3-25,13.3-37.6,0
			c-12.5,13.3-25,13.3-37.6,0c-12.5,13.3-25,13.3-37.6,0c-12.5,13.3-25,13.3-37.6,0c-12.5,13.3-25,13.3-37.6,0v126h1505v-126
			c-12.6,13.3-25.1,13.3-37.7,0c-12.6,13.3-25.1,13.3-37.7,0c-12.6,13.3-25.1,13.3-37.7,0c-12.6,13.3-25.1,13.3-37.7,0
			c-12.6,13.3-25.1,13.3-37.7,0c-12.5,13.3-25.1,13.3-37.7,0c-12.6,13.3-25.1,13.3-37.7,0c-12.6,13.3-25.1,13.3-37.7,0
			c-12.6,13.3-25.1,13.3-37.7,0c-12.6,13.3-25.1,13.3-37.7,0c-12.5,13.3-25,13.3-37.6,0c-12.5,13.3-25.1,13.3-37.6,0
			c-12.5,13.3-25,13.3-37.6,0c-12.5,13.3-25,13.3-37.6,0c-12.5,13.3-25,13.3-37.6,0c-12.5,13.3-25,13.3-37.6,0
			c-12.5,13.3-25,13.3-37.6,0c-12.5,13.3-25,13.3-37.6,0c-12.5,13.3-25,13.3-37.6,0c-12.5,13.3-25,13.3-37.6,0
			c-12.6,13.3-25.1,13.3-37.7,0c-12.6,13.3-25.1,13.3-37.7,0c-12.6,13.3-25.1,13.3-37.7,0c-12.6,13.3-25.1,13.3-37.7,0
			c-12.6,13.3-25.1,13.3-37.7,0c-12.6,13.3-25.1,13.3-37.7,0c-12.6,13.3-25.1,13.3-37.7,0c-12.6,13.3-25.1,13.3-37.7,0
			C438.5,1291.3,426,1291.3,413.4,1278z"/>
		<g class="st3">
			<path class="st4" d="M780.5,1162.4c-6.6,0.9-8.4,7-10,12.5c-1.8,6.1-3.1,11.7-3.1,18c0,4.8-5.4,5.9-6.1,10.8
				c-0.6,3.5,0,7.2-0.1,10.8c-0.2,7-11.2,8.7-15.4,12.9c-4.1,4.2-7,9.4-10.4,14.2c-4.6,6.5-9.8,12.2-15.1,18.2
				c-9.1,10.4-25.9,11.6-38.6,13.5c-7.6,1.2-15.3,1.8-22.5,4.4c-9.2,3.2-17.6,7.7-26.6,11.3c-11.6,4.6-23,0.2-35,0.3
				c-5.9,0.1-11.9,3.4-16.4,6.9c-2.5,1.9-6.3,4.5-7.9,7.3c-2,3.7-0.8,10.2,0,14.1c1.4,6.5,5.4,11.9,10.4,16.2
				c5.6,4.8,9.6,9.3,11.5,16.6c1.6,6-0.5,13.6-7.7,13.6c-2.8,0-6.1,0.4-8.3-1.7c-1.9-1.8-2.8-4.8-4.1-7.1c-1.6-3-3.7-5.7-5.3-8.8
				c-2.6-4.9-4.6-10-7-15c-2.2-4.7-5.4-9.1-6.8-14.2c-1.4-4.8-1.1-10.8,0.9-15.3c2.2-5.1,4.6-8.7,5.2-14.5c0.6-5.9-2.9-7.5-5.8-11.9
				c-4.1-6.2-5.1-18.3,1.3-23.2c5.5-4.2,13.3-6.5,19.9-8.4c6.3-1.9,13.3-5.8,20-6c5.5-0.2,11.5,0.3,16.8-0.8
				c6.9-1.4,14.6-4.3,16.9-11.9c1.6-5.1,2.6-10.1,3.8-15.3c1.5-6.6,1.7-12.1,7.5-16.8c5.7-4.6,15.4-9,17.9-16.5
				c1.8-5.5-0.2-12.2,0.8-18c1.4-7.8,8.6-13.7,14.3-18.7c6.7-5.9,15.3-9.8,20.9-16.9c3.7-4.8,3.2-7.3,1.5-12.8
				c-1.3-4-0.6-8.8,4.3-9.8c10.8-2.1,17.4-11.7,14.1-22.4c-0.9-2.8-3.8-5.9-4.1-8.7c-0.3-3.1,2.1-5.5,2.6-8.5
				c1.1-6.2-3.9-8.1-8.9-10.2c-7.6-3.1-14.8-7.2-22-11.2c-6.5-3.6-15.1-6.8-19.8-12.9c-4.5-5.9-6-13.5-8.1-20.4
				c-1.9-6.3-3.3-12.2-3.8-18.8c-0.7-10.7,2-21,1.4-31.7c-0.4-8.7-4.2-16.6,3.1-23.4c7.3-6.8,17.3-10.4,26.7-13.2
				c15.8-4.8,32.6-5.8,49.1-4.5c6.7,0.5,13.6,2.3,19.4,5.9c4.7,2.9,8.9,5.3,14.2,6.8c17.1,5.1,32.6-0.9,49.5-4
				c21.5-4.1,43.2-5.5,65.1-4.2c9.3,0.6,21.1,1.5,25.2,11.2c2.1,5,4.2,7.4,8.9,10.3c3.7,2.3,7.6,4.9,12,5.5c5.9,0.9,12.1,0.4,18,0.4
				c14.4,0,28.8,0,43.2,0c17.5,0,34.9-1.3,52.3-2c10-0.4,20-0.3,30-0.8c11.4-6.4,8.8,2.7,6.1,8c-1.7,3.4-1.9,6.1-1.9,9.8
				c0,3.8,8.3,3.1,10.7,3.2c5.2,0.3,10.2,0.9,15.5,0.5c9.2-0.8,17.2-5.5,24.7-10.5c5.3-3.6,9-9,15.2-11c7.8-2.5,13.2-2.8,20.7,2.1
				c2.8,1.8,4.1,5.5,3.6,8.7c-0.6,3.5-2.2,7-3.1,10.4c-1.5,5.4-3,10.7-4.7,16c-1.8,5.6-3.8,13.5-9.6,16.4c-6.5,3.3-16.4,5.8-18,14.2
				c-3.1,16.6,10.7,43.9-15.8,46.7c-3.6,0.4-5.4-1.7-7-4.8c-2.7-5.2-5.1-12-11.4-13.9c-3.9-1.2-12.3-1.7-15.7,0.9
				c-3.9,3-1.9,8.8-7.2,11.2c-3.8,1.7-6.5,1.1-9.6-1.2c-6-4.4-11.1-7.4-18.8-8.1c-8.5-0.7-11.8,3.9-11.9,12.2
				c-0.2,8.2-2.8,14.2-9,19.8c-5.2,4.7-12.6,9.6-19.7,10.9c-13,2.3-26.9,0.3-40,1c-8.1,0.4-20.9-1-26,7c-1.6,2.5-5,12.7-1.7,15
				c5.6,3.8,15.1,1.2,21.3,1.7c6.8,0.6,5.8,9.2,5.3,14.6c-0.5,5.9-5.5,10.2-5.5,15.7c0,2.1,2.9,3.3,4.3,4.4c2.7,2.1,3.7,2.8,7.1,2.8
				c11.8,0,19.9-6.3,29-13.3c2-1.6,4.9-4.7,7.7-4.9c4.8-0.3,9.9-0.1,14.7,0.1c5.5,0.3,17.4,1.2,18.5,8.4c2.2,14-3.2,29.7-14.8,38.2
				c-6.7,5-15.5,7.9-23.1,11.2c-4.7,2-11.3,6-10,12.4c1.3,6.6,9.1,7.8,11.4,13.3c2.9,7-7.8,10.8-11,15.6c-3.1,4.6-3.4,9.7,0.3,14
				c4.1,4.7,9.8,5.2,9.1,13c-0.9,9.5-18,18.2-25.4,10.8c-2.7-2.7-5-5.9-7.1-9c-2.5-3.5-3.3-7.8-5.6-11.4c-3.5-5.2-16.1-3.1-21.1-2.8
				c-4.7,0.3-6.7,2.1-10.9-0.6c-6.7-4.1-5.3-9.1-2.5-15.4c3.6-8.4-0.5-14.3-9.5-14.3c-4.7,0-9.5,0-14.2,0c-1.8,0-3.7,0.3-5.3-0.7
				c-6.8-4.5-12.6-13.6-7.8-21.4c5-8.1,14.2-14.7,21.8-20.1c5.9-4.2,12.7-8.3,18-13.2c5.8-5.4,8.6-11.8,11.5-19
				c1.2-3.2,2-6.4,1.8-9.8c-0.3-4.4-3.5-4.6-7.4-4.8c-6.9-0.4-15.2-0.5-20.1,5.2c-4.5,5.2-7.8,11.3-12.8,16.3
				c-4.8,4.9-10,8.8-17,9.2c-7,0.4-14-1.4-20.9,0.1c-8.2,1.7-5.8,5.9-1,11c5.3,5.6,9.9,10,10.3,18.1c0.2,3.8-0.5,6-4.3,7.5
				c-8.9,3.4-14.6-2.5-17.1-10.8c-1.9-6.3-1.8-13-7.4-17.4c-4.3-3.4-9.4-5.2-14.9-5.2c-11.9,0-22.7,8.2-34.7,8.2
				c-5.8,0-11.1-2.5-16.9-2.5"/>
			<path class="st4" d="M686.2,1231.2c7.4-2.2,14.1-10.8,13.6-18.6c-0.3-4.8-2.8-10.5-8-11.3c-5.2-0.8-11.4-1.1-15.5,2.8
				c-4.5,4.3-5.6,12.1-5.6,18c0,8.3,9.7,9.1,16.1,9.1"/>
			<path class="st4" d="M1039.7,1012.6c1.5-0.9,1.6-3.6,0.9-5.2c-1.4-3.1-5.9-4.9-8.7-6c-5.8-2.3-12.6-1.7-18.8-1.5
				c-5.2,0.2-9.9,1-13.7,4.7c-4.6,4.5-10.7,14.1-7.6,21.1c1.7,3.7,7,2.9,10.3,2.9c9.8,0,16.2-10,26-10.9c4.1-0.4,10-1,12.1-5.2"/>
		</g>
	</g>
</g>
</svg>
