<svg width="1506" height="1404" viewBox="0 0 1506 1404" fill="none" xmlns="http://www.w3.org/2000/svg">
<g clip-path="url(#clip0_1510_743)">
<path d="M1265.68 338.232C1293.49 369.934 1304.07 389.086 1298.62 430.017C1269.01 447.931 1215.09 457.874 1112.79 470.987C1102.24 497.288 1094.62 510.415 1079.85 532.779C1068.43 547.866 1063.13 546.11 1054.76 532.779C1048.63 518.892 1047.55 508.008 1046.92 486.876C1045.24 489.312 1043.43 492.037 1041.43 495.124C1037.36 512.739 1027.05 522.006 1005.37 538.271C978.261 554.135 962.313 560.548 932.445 567.297C904.927 572.393 901.02 566.43 912.842 541.409C923.967 524.765 940.137 509.609 975.57 478.649C942.585 480.563 923.669 480.432 889.319 477.865C816.023 473.706 774.01 474.064 698.001 477.865C599.888 481.549 545.465 477.239 450.228 449.623C414.056 444.747 394.109 440.722 359.273 430.796C338.633 423.644 326.946 420.628 305.955 416.634C294.963 421.373 283.529 428.315 267.534 439.425C245.351 456.528 233.207 463.714 211.864 473.942C180.519 485.047 163.172 491.042 146 488.063C168.009 472.902 181.651 461.654 209.511 433.933C226.325 414.554 235.887 401.847 251.068 404.907C251.515 401.124 252.514 399.968 255.773 399.416C254.73 391.025 254.596 386.427 263.614 380.588C276.828 368.477 284.081 360.39 296.546 342.148C305.62 343.617 310.144 344.769 313.796 349.208C321.807 353.714 324.929 354.264 328.693 352.714C357.507 335.701 394.11 321.843 458.853 301.361C562.822 273.468 608.45 258.417 654.876 233.11C687.686 207.756 706.697 193.764 708.194 157.015C709.124 132.062 709.383 117.448 716.035 106.023C738.978 104.935 763.383 120.78 812.478 157.015C852.748 190.569 890.852 201.654 970.081 215.852C1105.01 233.037 1170.53 258.579 1265.68 338.232Z" fill="#1C4E89" fill-opacity="0.15"/>
<rect y="254.971" width="1506" height="1037" fill="#1C4E89"/>
<path d="M413.405 219C400.846 232.333 388.287 232.333 375.728 219C363.204 232.333 350.68 232.333 338.155 219C325.631 232.333 313.107 232.333 300.583 219C288.058 232.333 275.534 232.333 263.01 219C250.485 232.333 237.961 232.333 225.437 219C212.913 232.333 200.388 232.333 187.864 219C175.34 232.333 162.816 232.333 150.291 219C137.767 232.333 125.243 232.333 112.718 219C100.194 232.333 87.6699 232.333 75.1456 219C62.6214 232.333 50.0971 232.333 37.5728 219C25.0485 232.333 12.5243 232.333 0 219V345H1505V219C1492.44 232.333 1479.88 232.333 1467.32 219C1454.76 232.333 1442.2 232.333 1429.65 219C1417.09 232.333 1404.53 232.333 1391.97 219C1379.41 232.333 1366.85 232.333 1354.29 219C1341.73 232.333 1329.17 232.333 1316.61 219C1304.06 232.333 1291.5 232.333 1278.94 219C1266.38 232.333 1253.82 232.333 1241.26 219C1228.7 232.333 1216.14 232.333 1203.58 219C1191.02 232.333 1178.46 232.333 1165.91 219C1153.35 232.333 1140.79 232.333 1128.23 219C1115.7 232.333 1103.18 232.333 1090.66 219C1078.13 232.333 1065.61 232.333 1053.08 219C1040.56 232.333 1028.03 232.333 1015.51 219C1002.99 232.333 990.461 232.333 977.937 219C965.413 232.333 952.888 232.333 940.364 219C927.84 232.333 915.316 232.333 902.791 219C890.267 232.333 877.743 232.333 865.219 219C852.694 232.333 840.17 232.333 827.646 219C815.121 232.333 802.597 232.333 790.073 219C777.549 232.333 765.024 232.333 752.5 219C739.941 232.333 727.382 232.333 714.823 219C702.264 232.333 689.705 232.333 677.146 219C664.587 232.333 652.028 232.333 639.469 219C626.909 232.333 614.35 232.333 601.791 219C589.232 232.333 576.673 232.333 564.114 219C551.555 232.333 538.996 232.333 526.437 219C513.878 232.333 501.319 232.333 488.76 219C476.201 232.333 463.642 232.333 451.083 219C438.523 232.333 425.964 232.333 413.405 219Z" fill="#1C4E89"/>
<g opacity="0.5">
<path d="M260.834 258.931C269.268 257.724 271.65 249.994 273.723 242.845C275.977 235.072 277.75 227.862 277.75 219.771C277.75 213.614 284.634 212.145 285.627 205.881C286.344 201.358 285.679 196.562 285.806 191.991C286.055 183.003 300.229 180.776 305.541 175.458C310.861 170.132 314.549 163.384 318.877 157.267C324.789 148.91 331.506 141.594 338.209 133.924C349.899 120.548 371.533 119.071 387.749 116.539C397.483 115.019 407.337 114.157 416.703 110.938C428.514 106.879 439.311 101.02 450.893 96.4214C465.776 90.5126 480.453 96.2111 495.868 96.0182C503.454 95.9232 511.092 91.6349 516.99 87.1467C520.229 84.6824 525.128 81.3819 527.104 77.7376C529.706 72.9388 528.186 64.6052 527.104 59.6362C525.285 51.2804 520.166 44.2785 513.724 38.8465C506.47 32.7309 501.445 26.9324 498.911 17.4744C496.863 9.83041 499.615 0.0450738 508.756 0.0450738C512.373 0.0450738 516.581 -0.499314 519.452 2.19573C521.944 4.53457 523.091 8.39464 524.688 11.336C526.778 15.1873 529.404 18.699 531.445 22.5822C534.749 28.8678 537.384 35.4695 540.395 41.8933C543.246 47.9748 547.27 53.6398 549.167 60.1291C550.974 66.3122 550.546 73.9706 547.958 79.8434C545.077 86.3824 542.107 90.9686 541.335 98.4377C540.552 106.019 545.021 108.086 548.764 113.761C554.024 121.736 555.365 137.296 547.063 143.601C539.955 149.001 529.954 151.902 521.555 154.444C513.43 156.904 504.513 161.862 495.868 162.151C488.856 162.385 481.14 161.731 474.298 163.137C465.481 164.947 455.519 168.707 452.549 178.37C450.526 184.951 449.235 191.371 447.716 198.085C445.797 206.557 445.512 213.59 438.139 219.591C430.847 225.527 418.405 231.102 415.181 240.784C412.826 247.859 415.498 256.508 414.152 263.859C412.305 273.947 403.107 281.455 395.804 287.875C387.201 295.438 376.11 300.495 368.953 309.65C364.175 315.764 364.805 319.065 366.984 326.049C368.596 331.213 367.726 337.4 361.525 338.594C347.618 341.272 339.126 353.571 343.4 367.36C344.493 370.883 348.286 374.96 348.636 378.471C349.033 382.445 345.909 385.523 345.235 389.404C343.859 397.328 350.194 399.839 356.692 402.487C366.443 406.46 375.678 411.732 384.885 416.825C393.284 421.471 404.235 425.52 410.304 433.403C416.123 440.961 418.025 450.726 420.731 459.659C423.182 467.751 425.03 475.327 425.564 483.764C426.43 497.476 423.05 510.703 423.729 524.447C424.283 535.667 429.129 545.792 419.701 554.556C410.338 563.261 397.459 567.866 385.467 571.493C365.131 577.643 343.54 578.902 322.367 577.317C313.704 576.669 304.927 574.305 297.486 569.745C291.468 566.058 286.087 562.975 279.272 560.964C257.273 554.469 237.346 562.06 215.68 566.161C188.119 571.378 160.153 573.258 132.13 571.493C120.17 570.739 105.006 569.569 99.73 557.155C96.9977 550.726 94.3245 547.673 88.2737 543.937C83.4954 540.987 78.5495 537.682 72.8793 536.858C65.3109 535.758 57.3678 536.365 49.7429 536.365C31.2308 536.365 12.7187 536.365 -5.79336 536.365C-28.2753 536.365 -50.5623 538.065 -73.0097 538.964C-85.8655 539.479 -98.7351 539.375 -111.585 539.95C-126.181 548.122 -122.858 536.545 -119.372 529.734C-117.199 525.384 -116.955 521.877 -116.955 517.099C-116.955 512.216 -127.642 513.083 -130.649 512.932C-137.312 512.599 -143.819 511.766 -150.519 512.35C-162.269 513.373 -172.608 519.385 -182.203 525.881C-188.979 530.468 -193.798 537.44 -201.759 540.039C-211.777 543.31 -218.719 543.576 -228.296 537.306C-231.835 534.99 -233.516 530.245 -232.861 526.15C-232.15 521.699 -230.056 517.206 -228.878 512.843C-227.02 505.959 -225.036 499.104 -222.837 492.322C-220.488 485.077 -217.958 475.044 -210.485 471.218C-202.156 466.954 -189.399 463.781 -187.394 452.938C-183.44 431.562 -201.096 396.533 -167.032 392.943C-162.465 392.462 -160.118 395.174 -158.037 399.171C-154.528 405.914 -151.462 414.632 -143.359 417.004C-138.288 418.488 -127.613 419.207 -123.221 415.839C-118.179 411.972 -120.801 404.526 -113.912 401.412C-109.094 399.233 -105.593 399.999 -101.606 402.935C-93.8461 408.648 -87.3227 412.468 -77.4848 413.33C-66.5928 414.284 -62.3786 408.29 -62.1799 397.648C-61.9833 387.12 -58.6409 379.433 -50.6341 372.198C-43.8965 366.111 -34.4817 359.837 -25.3944 358.219C-8.70422 355.248 9.09869 357.849 25.98 356.92C36.3587 356.349 52.7817 358.244 59.4092 347.959C61.4994 344.715 65.8236 331.619 61.602 328.737C54.4555 323.859 42.1828 327.201 34.2143 326.497C25.4819 325.726 26.8206 314.659 27.4121 307.768C28.0566 300.259 34.4828 294.723 34.4828 287.561C34.4828 284.825 30.7692 283.36 28.9336 281.916C25.51 279.222 24.1679 278.286 19.7596 278.286C4.58875 278.286 -5.81196 286.377 -17.4287 295.402C-20.0491 297.438 -23.7571 301.485 -27.3634 301.675C-33.587 302.003 -40.0347 301.833 -46.2485 301.496C-53.3306 301.111 -68.6137 300.011 -70.0561 290.653C-72.8338 272.632 -65.9127 252.534 -51.0816 241.546C-42.4246 235.132 -31.2004 231.407 -21.3668 227.208C-15.328 224.63 -6.82437 219.538 -8.47843 211.258C-10.1736 202.771 -20.2191 201.273 -23.1568 194.232C-26.9049 185.248 -13.0819 180.41 -9.01544 174.248C-5.08909 168.299 -4.60132 161.779 -9.37345 156.237C-14.5923 150.175 -22.0016 149.51 -21.0088 139.569C-19.7894 127.361 2.10198 116.2 11.6149 125.724C15.031 129.144 18.0252 133.37 20.7889 137.329C23.9621 141.874 24.9916 147.388 28.0386 151.935C32.4979 158.59 48.6565 155.944 55.1578 155.52C61.1536 155.128 63.7506 152.876 69.1649 156.237C77.721 161.548 75.9163 167.869 72.387 175.996C67.6988 186.792 73.077 194.299 84.6041 194.411C90.6891 194.47 96.7774 194.411 102.863 194.411C105.188 194.411 107.627 193.975 109.665 195.307C118.451 201.049 125.899 212.766 119.689 222.817C113.253 233.234 101.505 241.657 91.6748 248.625C84.0805 254.009 75.4162 259.247 68.5832 265.562C61.1316 272.448 57.4854 280.68 53.86 289.936C52.2635 294.012 51.2383 298.153 51.5777 302.571C52.008 308.171 56.1283 308.481 61.065 308.754C69.8877 309.242 80.5892 309.374 86.8417 302.123C92.6544 295.382 96.8846 287.641 103.221 281.244C109.432 274.972 116.037 269.948 125.059 269.46C134.082 268.971 142.99 271.227 151.955 269.37C162.551 267.175 159.434 261.825 153.252 255.301C146.496 248.171 140.586 242.491 140.051 232.047C139.8 227.155 140.639 224.314 145.555 222.459C156.996 218.143 164.361 225.705 167.573 236.349C170.024 244.472 169.844 253.008 177.015 258.751C182.517 263.158 189.129 265.382 196.124 265.382C211.433 265.382 225.268 254.898 240.696 254.898C248.132 254.898 254.993 258.124 262.446 258.124" stroke="#F5F5F5" stroke-width="3" stroke-linecap="round"/>
<path d="M381.874 170.478C372.4 173.32 363.756 184.409 364.354 194.425C364.722 200.591 367.933 207.971 374.669 208.957C381.404 209.942 389.311 210.413 394.605 205.355C400.366 199.85 401.769 189.772 401.769 182.185C401.769 171.517 389.296 170.478 381.137 170.478" stroke="#F5F5F5" stroke-width="3" stroke-linecap="round"/>
</g>
<g opacity="0.5">
<path d="M1361.49 376.361C1354.92 377.3 1353.07 383.319 1351.45 388.885C1349.7 394.938 1348.32 400.551 1348.32 406.852C1348.32 411.645 1342.96 412.789 1342.18 417.666C1341.63 421.188 1342.14 424.923 1342.04 428.481C1341.85 435.48 1330.81 437.214 1326.68 441.354C1322.54 445.502 1319.66 450.756 1316.29 455.518C1311.69 462.026 1306.46 467.722 1301.24 473.694C1292.14 484.109 1275.3 485.259 1262.67 487.23C1255.09 488.414 1247.42 489.085 1240.12 491.591C1230.93 494.752 1222.52 499.314 1213.5 502.894C1201.92 507.495 1190.49 503.058 1178.48 503.208C1172.58 503.282 1166.63 506.621 1162.04 510.116C1159.52 512.035 1155.7 514.605 1154.16 517.442C1152.14 521.179 1153.32 527.667 1154.16 531.536C1155.58 538.042 1159.57 543.494 1164.58 547.724C1170.23 552.486 1174.14 557 1176.12 564.365C1177.71 570.316 1175.57 577.936 1168.45 577.936C1165.63 577.936 1162.36 578.359 1160.12 576.261C1158.18 574.44 1157.29 571.434 1156.04 569.144C1154.42 566.145 1152.37 563.411 1150.78 560.388C1148.21 555.493 1146.16 550.353 1143.81 545.351C1141.59 540.616 1138.46 536.205 1136.98 531.153C1135.58 526.338 1135.91 520.375 1137.93 515.803C1140.17 510.711 1142.48 507.14 1143.08 501.325C1143.69 495.422 1140.21 493.812 1137.3 489.393C1133.2 483.184 1132.16 471.068 1138.62 466.159C1144.16 461.955 1151.94 459.696 1158.48 457.716C1164.81 455.801 1171.75 451.94 1178.48 451.716C1183.94 451.534 1189.95 452.042 1195.28 450.948C1202.14 449.538 1209.9 446.611 1212.21 439.087C1213.79 433.963 1214.79 428.964 1215.98 423.737C1217.47 417.14 1217.69 411.664 1223.43 406.991C1229.11 402.37 1238.8 398.029 1241.31 390.49C1243.14 384.981 1241.06 378.247 1242.11 372.523C1243.55 364.669 1250.71 358.823 1256.4 353.824C1263.1 347.935 1271.73 343.998 1277.3 336.869C1281.02 332.109 1280.53 329.538 1278.84 324.101C1277.58 320.08 1278.26 315.262 1283.09 314.332C1293.92 312.247 1300.53 302.672 1297.2 291.935C1296.35 289.192 1293.4 286.017 1293.12 283.283C1292.81 280.189 1295.25 277.793 1295.77 274.771C1296.84 268.601 1291.91 266.645 1286.85 264.584C1279.26 261.49 1272.07 257.385 1264.9 253.42C1258.36 249.803 1249.83 246.649 1245.11 240.512C1240.58 234.627 1239.1 227.024 1236.99 220.069C1235.08 213.768 1233.64 207.868 1233.23 201.3C1232.55 190.623 1235.18 180.324 1234.65 169.623C1234.22 160.887 1230.45 153.003 1237.79 146.179C1245.08 139.401 1255.11 135.816 1264.45 132.992C1280.28 128.203 1297.09 127.222 1313.58 128.456C1320.32 128.961 1327.16 130.802 1332.95 134.352C1337.64 137.223 1341.83 139.623 1347.13 141.19C1364.26 146.247 1379.78 140.336 1396.65 137.143C1418.11 133.081 1439.88 131.617 1461.7 132.992C1471.01 133.578 1482.82 134.489 1486.93 144.155C1489.06 149.161 1491.14 151.538 1495.85 154.447C1499.57 156.744 1503.42 159.317 1507.83 159.959C1513.73 160.815 1519.91 160.343 1525.85 160.343C1540.26 160.343 1554.68 160.343 1569.09 160.343C1586.6 160.343 1603.95 159.019 1621.43 158.319C1631.44 157.918 1641.46 157.999 1651.46 157.552C1662.83 151.188 1660.24 160.203 1657.53 165.506C1655.83 168.893 1655.64 171.624 1655.64 175.344C1655.64 179.146 1663.97 178.471 1666.31 178.588C1671.49 178.848 1676.56 179.496 1681.78 179.042C1690.93 178.245 1698.98 173.564 1706.45 168.506C1711.72 164.934 1715.48 159.506 1721.67 157.482C1729.48 154.935 1734.88 154.728 1742.34 159.61C1745.09 161.414 1746.4 165.108 1745.89 168.297C1745.34 171.762 1743.71 175.26 1742.79 178.658C1741.34 184.018 1739.8 189.355 1738.09 194.636C1736.26 200.277 1734.29 208.089 1728.47 211.068C1721.98 214.388 1712.05 216.859 1710.49 225.302C1707.41 241.945 1721.16 269.22 1694.64 272.015C1691.08 272.39 1689.25 270.278 1687.63 267.166C1684.9 261.916 1682.51 255.127 1676.2 253.281C1672.25 252.125 1663.94 251.565 1660.52 254.188C1656.6 257.198 1658.64 262.996 1653.28 265.421C1649.52 267.117 1646.8 266.521 1643.69 264.235C1637.65 259.787 1632.57 256.812 1624.91 256.141C1616.43 255.398 1613.15 260.066 1613 268.352C1612.84 276.549 1610.24 282.534 1604.01 288.167C1598.76 292.907 1591.43 297.793 1584.35 299.052C1571.36 301.365 1557.5 299.341 1544.35 300.064C1536.27 300.508 1523.48 299.033 1518.32 307.041C1516.7 309.567 1513.33 319.763 1516.62 322.007C1522.18 325.806 1531.74 323.204 1537.94 323.752C1544.74 324.352 1543.7 332.969 1543.24 338.334C1542.73 344.181 1537.73 348.492 1537.73 354.068C1537.73 356.199 1540.62 357.34 1542.05 358.464C1544.72 360.561 1545.76 361.29 1549.19 361.29C1561.01 361.29 1569.11 354.99 1578.15 347.963C1580.19 346.378 1583.08 343.227 1585.89 343.079C1590.73 342.824 1595.75 342.956 1600.59 343.218C1606.1 343.518 1618 344.375 1619.13 351.661C1621.29 365.693 1615.9 381.341 1604.35 389.897C1597.61 394.891 1588.87 397.791 1581.22 401.06C1576.51 403.068 1569.89 407.033 1571.18 413.48C1572.5 420.088 1580.32 421.255 1582.61 426.737C1585.53 433.732 1574.77 437.498 1571.6 442.296C1568.54 446.929 1568.16 452.005 1571.88 456.321C1575.94 461.04 1581.71 461.559 1580.94 469.299C1579.99 478.804 1562.94 487.495 1555.54 480.079C1552.88 477.416 1550.55 474.125 1548.39 471.043C1545.92 467.504 1545.12 463.211 1542.75 459.67C1539.28 454.488 1526.69 456.548 1521.63 456.879C1516.96 457.184 1514.94 458.938 1510.73 456.321C1504.06 452.185 1505.47 447.264 1508.22 440.936C1511.87 432.53 1507.68 426.685 1498.71 426.597C1493.97 426.551 1489.23 426.597 1484.49 426.597C1482.68 426.597 1480.78 426.937 1479.19 425.9C1472.35 421.429 1466.55 412.305 1471.39 404.479C1476.4 396.368 1485.55 389.81 1493.2 384.385C1499.11 380.193 1505.86 376.114 1511.18 371.197C1516.98 365.835 1519.82 359.426 1522.64 352.219C1523.89 349.046 1524.68 345.821 1524.42 342.381C1524.09 338.021 1520.88 337.779 1517.03 337.567C1510.16 337.187 1501.83 337.084 1496.96 342.73C1492.44 347.979 1489.14 354.006 1484.21 358.987C1479.37 363.871 1474.23 367.782 1467.21 368.162C1460.18 368.543 1453.24 366.786 1446.26 368.232C1438.01 369.941 1440.44 374.107 1445.25 379.187C1450.51 384.739 1455.12 389.161 1455.53 397.293C1455.73 401.102 1455.08 403.314 1451.25 404.758C1442.34 408.119 1436.6 402.231 1434.1 393.944C1432.2 387.619 1432.33 380.972 1426.75 376.5C1422.47 373.069 1417.32 371.337 1411.87 371.337C1399.95 371.337 1389.18 379.5 1377.17 379.5C1371.38 379.5 1366.04 376.989 1360.23 376.989" stroke="#F5F5F5" stroke-width="3" stroke-linecap="round"/>
<path d="M1267.24 445.232C1274.62 443.019 1281.35 434.385 1280.89 426.586C1280.6 421.786 1278.1 416.039 1272.85 415.271C1267.61 414.504 1261.45 414.138 1257.33 418.076C1252.85 422.363 1251.75 430.209 1251.75 436.117C1251.75 444.423 1261.46 445.232 1267.82 445.232" stroke="#F5F5F5" stroke-width="3" stroke-linecap="round"/>
</g>
<path d="M413.405 1278C400.846 1291.33 388.287 1291.33 375.728 1278C363.204 1291.33 350.68 1291.33 338.155 1278C325.631 1291.33 313.107 1291.33 300.583 1278C288.058 1291.33 275.534 1291.33 263.01 1278C250.485 1291.33 237.961 1291.33 225.437 1278C212.913 1291.33 200.388 1291.33 187.864 1278C175.34 1291.33 162.816 1291.33 150.291 1278C137.767 1291.33 125.243 1291.33 112.718 1278C100.194 1291.33 87.6699 1291.33 75.1456 1278C62.6214 1291.33 50.0971 1291.33 37.5728 1278C25.0485 1291.33 12.5243 1291.33 0 1278V1404H1505V1278C1492.44 1291.33 1479.88 1291.33 1467.32 1278C1454.76 1291.33 1442.2 1291.33 1429.65 1278C1417.09 1291.33 1404.53 1291.33 1391.97 1278C1379.41 1291.33 1366.85 1291.33 1354.29 1278C1341.73 1291.33 1329.17 1291.33 1316.61 1278C1304.06 1291.33 1291.5 1291.33 1278.94 1278C1266.38 1291.33 1253.82 1291.33 1241.26 1278C1228.7 1291.33 1216.14 1291.33 1203.58 1278C1191.02 1291.33 1178.46 1291.33 1165.91 1278C1153.35 1291.33 1140.79 1291.33 1128.23 1278C1115.7 1291.33 1103.18 1291.33 1090.66 1278C1078.13 1291.33 1065.61 1291.33 1053.08 1278C1040.56 1291.33 1028.03 1291.33 1015.51 1278C1002.99 1291.33 990.461 1291.33 977.937 1278C965.413 1291.33 952.888 1291.33 940.364 1278C927.84 1291.33 915.316 1291.33 902.791 1278C890.267 1291.33 877.743 1291.33 865.219 1278C852.694 1291.33 840.17 1291.33 827.646 1278C815.121 1291.33 802.597 1291.33 790.073 1278C777.549 1291.33 765.024 1291.33 752.5 1278C739.941 1291.33 727.382 1291.33 714.823 1278C702.264 1291.33 689.705 1291.33 677.146 1278C664.587 1291.33 652.028 1291.33 639.469 1278C626.909 1291.33 614.35 1291.33 601.791 1278C589.232 1291.33 576.673 1291.33 564.114 1278C551.555 1291.33 538.996 1291.33 526.437 1278C513.878 1291.33 501.319 1291.33 488.76 1278C476.201 1291.33 463.642 1291.33 451.083 1278C438.523 1291.33 425.964 1291.33 413.405 1278Z" fill="#1C4E89"/>
<g opacity="0.5">
<path d="M780.488 1162.36C773.921 1163.3 772.066 1169.32 770.452 1174.88C768.697 1180.94 767.316 1186.55 767.316 1192.85C767.316 1197.65 761.957 1198.79 761.184 1203.67C760.625 1207.19 761.143 1210.92 761.044 1214.48C760.85 1221.48 749.814 1223.21 745.678 1227.35C741.536 1231.5 738.664 1236.76 735.294 1241.52C730.691 1248.03 725.461 1253.72 720.242 1259.69C711.14 1270.11 694.295 1271.26 681.669 1273.23C674.09 1274.41 666.417 1275.08 659.124 1277.59C649.928 1280.75 641.521 1285.31 632.503 1288.89C620.915 1293.5 609.487 1289.06 597.484 1289.21C591.578 1289.28 585.631 1292.62 581.038 1296.12C578.516 1298.03 574.702 1300.6 573.163 1303.44C571.137 1307.18 572.321 1313.67 573.163 1317.54C574.579 1324.04 578.565 1329.49 583.582 1333.72C589.229 1338.49 593.142 1343 595.115 1350.36C596.71 1356.32 594.567 1363.94 587.449 1363.94C584.633 1363.94 581.357 1364.36 579.121 1362.26C577.181 1360.44 576.288 1357.43 575.045 1355.14C573.417 1352.15 571.373 1349.41 569.783 1346.39C567.21 1341.49 565.159 1336.35 562.814 1331.35C560.594 1326.62 557.462 1322.21 555.985 1317.15C554.577 1312.34 554.911 1306.38 556.926 1301.8C559.169 1296.71 561.482 1293.14 562.082 1287.32C562.692 1281.42 559.213 1279.81 556.298 1275.39C552.203 1269.18 551.159 1257.07 557.622 1252.16C563.157 1247.95 570.945 1245.7 577.484 1243.72C583.81 1241.8 590.753 1237.94 597.484 1237.72C602.944 1237.53 608.952 1238.04 614.28 1236.95C621.145 1235.54 628.902 1232.61 631.214 1225.09C632.789 1219.96 633.794 1214.96 634.977 1209.74C636.471 1203.14 636.693 1197.66 642.434 1192.99C648.111 1188.37 657.799 1184.03 660.309 1176.49C662.143 1170.98 660.062 1164.25 661.11 1158.52C662.549 1150.67 669.71 1144.82 675.397 1139.82C682.096 1133.93 690.731 1130 696.303 1122.87C700.024 1118.11 699.534 1115.54 697.837 1110.1C696.582 1106.08 697.259 1101.26 702.088 1100.33C712.916 1098.25 719.528 1088.67 716.2 1077.94C715.349 1075.19 712.396 1072.02 712.123 1069.28C711.814 1066.19 714.246 1063.79 714.771 1060.77C715.843 1054.6 710.91 1052.65 705.851 1050.58C698.258 1047.49 691.067 1043.39 683.899 1039.42C677.359 1035.8 668.832 1032.65 664.107 1026.51C659.576 1020.63 658.095 1013.02 655.988 1006.07C654.08 999.768 652.64 993.868 652.225 987.3C651.55 976.623 654.182 966.324 653.654 955.623C653.222 946.887 649.45 939.003 656.79 932.179C664.08 925.401 674.109 921.816 683.446 918.992C699.28 914.203 716.091 913.222 732.576 914.456C739.322 914.961 746.156 916.802 751.95 920.352C756.636 923.223 760.825 925.623 766.132 927.19C783.261 932.247 798.776 926.336 815.646 923.143C837.105 919.081 858.881 917.617 880.7 918.992C890.012 919.578 901.82 920.489 905.928 930.155C908.055 935.161 910.137 937.538 914.848 940.447C918.568 942.744 922.419 945.317 926.834 945.959C932.727 946.815 938.912 946.343 944.849 946.343C959.263 946.343 973.677 946.343 988.091 946.343C1005.6 946.343 1022.95 945.019 1040.43 944.319C1050.44 943.918 1060.46 943.999 1070.46 943.552C1081.83 937.188 1079.24 946.203 1076.53 951.506C1074.83 954.893 1074.64 957.624 1074.64 961.344C1074.64 965.146 1082.97 964.471 1085.31 964.588C1090.49 964.848 1095.56 965.496 1100.78 965.042C1109.93 964.245 1117.98 959.564 1125.45 954.506C1130.72 950.934 1134.48 945.506 1140.67 943.482C1148.48 940.935 1153.88 940.728 1161.34 945.61C1164.09 947.414 1165.4 951.108 1164.89 954.297C1164.34 957.762 1162.71 961.26 1161.79 964.658C1160.34 970.018 1158.8 975.355 1157.09 980.636C1155.26 986.277 1153.29 994.089 1147.47 997.068C1140.98 1000.39 1131.05 1002.86 1129.49 1011.3C1126.41 1027.95 1140.16 1055.22 1113.64 1058.01C1110.08 1058.39 1108.25 1056.28 1106.63 1053.17C1103.9 1047.92 1101.51 1041.13 1095.2 1039.28C1091.25 1038.13 1082.94 1037.56 1079.52 1040.19C1075.6 1043.2 1077.64 1049 1072.28 1051.42C1068.52 1053.12 1065.8 1052.52 1062.69 1050.24C1056.65 1045.79 1051.57 1042.81 1043.91 1042.14C1035.43 1041.4 1032.15 1046.07 1032 1054.35C1031.84 1062.55 1029.24 1068.53 1023.01 1074.17C1017.76 1078.91 1010.43 1083.79 1003.35 1085.05C990.357 1087.37 976.496 1085.34 963.351 1086.06C955.27 1086.51 942.483 1085.03 937.323 1093.04C935.695 1095.57 932.328 1105.76 935.615 1108.01C941.18 1111.81 950.736 1109.2 956.94 1109.75C963.739 1110.35 962.697 1118.97 962.236 1124.33C961.735 1130.18 956.731 1134.49 956.731 1140.07C956.731 1142.2 959.622 1143.34 961.052 1144.46C963.717 1146.56 964.762 1147.29 968.195 1147.29C980.007 1147.29 988.105 1140.99 997.151 1133.96C999.191 1132.38 1002.08 1129.23 1004.89 1129.08C1009.73 1128.82 1014.75 1128.96 1019.59 1129.22C1025.1 1129.52 1037 1130.37 1038.13 1137.66C1040.29 1151.69 1034.9 1167.34 1023.35 1175.9C1016.61 1180.89 1007.87 1183.79 1000.22 1187.06C995.515 1189.07 988.894 1193.03 990.182 1199.48C991.502 1206.09 999.323 1207.25 1001.61 1212.74C1004.53 1219.73 993.766 1223.5 990.6 1228.3C987.543 1232.93 987.163 1238.01 990.879 1242.32C994.942 1247.04 1000.71 1247.56 999.938 1255.3C998.989 1264.8 981.943 1273.49 974.536 1266.08C971.877 1263.42 969.545 1260.13 967.393 1257.04C964.923 1253.5 964.121 1249.21 961.749 1245.67C958.276 1240.49 945.695 1242.55 940.633 1242.88C935.964 1243.18 933.942 1244.94 929.727 1242.32C923.065 1238.19 924.47 1233.26 927.218 1226.94C930.868 1218.53 926.68 1212.68 917.705 1212.6C912.967 1212.55 908.227 1212.6 903.489 1212.6C901.678 1212.6 899.779 1212.94 898.192 1211.9C891.351 1207.43 885.552 1198.31 890.387 1190.48C895.398 1182.37 904.546 1175.81 912.2 1170.38C918.113 1166.19 924.859 1162.11 930.179 1157.2C935.982 1151.84 938.821 1145.43 941.643 1138.22C942.886 1135.05 943.685 1131.82 943.42 1128.38C943.085 1124.02 939.877 1123.78 936.033 1123.57C929.164 1123.19 920.831 1123.08 915.963 1128.73C911.437 1133.98 908.143 1140.01 903.21 1144.99C898.373 1149.87 893.231 1153.78 886.206 1154.16C879.181 1154.54 872.244 1152.79 865.264 1154.23C857.014 1155.94 859.441 1160.11 864.254 1165.19C869.515 1170.74 874.116 1175.16 874.533 1183.29C874.728 1187.1 874.075 1189.31 870.247 1190.76C861.339 1194.12 855.604 1188.23 853.104 1179.94C851.195 1173.62 851.335 1166.97 845.751 1162.5C841.468 1159.07 836.319 1157.34 830.873 1157.34C818.953 1157.34 808.181 1165.5 796.168 1165.5C790.378 1165.5 785.036 1162.99 779.233 1162.99" stroke="#F5F5F5" stroke-width="3" stroke-linecap="round"/>
<path d="M686.244 1231.23C693.62 1229.02 700.351 1220.39 699.885 1212.59C699.599 1207.79 697.098 1202.04 691.853 1201.27C686.61 1200.5 680.453 1200.14 676.331 1204.08C671.845 1208.36 670.753 1216.21 670.753 1222.12C670.753 1230.42 680.465 1231.23 686.817 1231.23" stroke="#F5F5F5" stroke-width="3" stroke-linecap="round"/>
<path d="M1039.66 1012.64C1041.15 1011.71 1041.26 1009.02 1040.55 1007.48C1039.14 1004.42 1034.64 1002.6 1031.85 1001.52C1026.01 999.263 1019.22 999.834 1013.04 1000.05C1007.86 1000.24 1003.17 1001 999.368 1004.74C994.752 1009.29 988.698 1018.88 991.814 1025.81C993.489 1029.53 998.853 1028.71 1002.08 1028.71C1011.93 1028.71 1018.27 1018.74 1028.12 1017.84C1032.24 1017.47 1038.15 1016.8 1040.23 1012.64" stroke="#F5F5F5" stroke-width="3" stroke-linecap="round"/>
</g>
</g>
<defs>
<clipPath id="clip0_1510_743">
<rect width="1506" height="1404" fill="white"/>
</clipPath>
</defs>
</svg>
