<svg width="1605" height="696" viewBox="0 0 1605 696" fill="none" xmlns="http://www.w3.org/2000/svg">
<rect y="184.63" width="1605" height="511.083" rx="8" fill="#DDEAF8"/>
<path d="M21.9052 130.773C19.2091 130.773 6.17837 143.364 0 149.66V370.076H800.38H1600.03C1602.84 324.864 1606.77 0.286133 1600.03 0.286133H1560.32C1548.52 0.286133 1499.66 19.1725 1482.81 19.1725C1465.96 19.1725 1418.78 27.7571 1406.98 19.1725C1395.19 10.5879 1380.02 19.1725 1363.17 19.1725C1346.32 19.1725 1307.57 20.8895 1295.77 19.1725C1283.98 17.4556 1282.29 27.7571 1275.55 32.908C1268.81 38.059 1250.28 32.9081 1226.69 38.0587C1203.1 43.2094 1113.79 51.7944 1100.31 44.9265C1086.83 38.0586 1024.49 44.9265 1017.75 44.9265C1011.01 44.9265 1009.32 38.0587 994.156 32.908C978.991 27.7574 958.771 38.0587 952.031 32.908C945.291 27.7574 936.866 27.7571 921.7 27.7571C906.535 27.7571 889.685 38.0587 881.26 32.908C872.835 27.7574 866.095 27.7571 859.355 27.7571H830.71C818.915 27.7571 810.49 32.908 800.38 32.908C790.27 32.908 788.585 31.191 778.475 27.7571C768.365 24.3232 758.255 38.0587 753.2 38.0587C748.145 38.0587 726.239 44.9265 716.129 44.9265C706.019 44.9265 690.854 65.5297 674.004 65.5297C657.154 65.5297 653.529 50.64 647.044 44.9265C633.402 32.908 586.384 38.0587 559.423 38.0587C537.855 38.0587 505.503 51.7942 492.023 58.6619C481.351 58.6619 456.638 60.0355 443.158 65.5297C426.307 72.3975 360.592 79.2653 350.482 75.8314C340.372 72.3975 294.877 65.5297 289.822 65.5297C284.767 65.5297 279.712 60.3789 272.972 58.6619C266.232 56.945 259.492 63.8128 254.437 65.5297C249.382 67.2467 230.846 74.1144 217.366 72.3975C203.886 70.6806 195.461 96.4347 183.666 96.4347C171.871 96.4347 160.076 106.736 151.651 106.736H109.526C102.786 106.736 104.471 118.755 96.0457 118.755C87.6206 118.755 87.6206 117.038 72.4555 118.755C57.2904 120.472 52.2354 135.924 45.4953 135.924C38.7553 135.924 25.2752 130.773 21.9052 130.773Z" fill="#DDEAF8"/>
</svg>
