<svg width="1440" height="17" viewBox="0 0 1440 17" fill="none" xmlns="http://www.w3.org/2000/svg">
<path d="M395.551 0C383.534 13.7566 371.517 13.7566 359.501 0C347.517 13.7566 335.534 13.7566 323.551 0C311.567 13.7566 299.584 13.7566 287.601 0C275.617 13.7566 263.634 13.7566 251.65 0C239.667 13.7566 227.684 13.7566 215.7 0C203.717 13.7566 191.734 13.7566 179.75 0C167.767 13.7566 155.784 13.7566 143.8 0C131.817 13.7566 119.834 13.7566 107.85 0C95.8669 13.7566 83.8835 13.7566 71.9001 0C59.9168 13.7566 47.9334 13.7566 35.9501 0C23.9667 13.7566 11.9834 13.7566 0 0V17H1440V0C1427.98 13.7566 1415.97 13.7566 1403.95 0C1391.93 13.7566 1379.92 13.7566 1367.9 0C1355.88 13.7566 1343.87 13.7566 1331.85 0C1319.83 13.7566 1307.82 13.7566 1295.8 0C1283.78 13.7566 1271.77 13.7566 1259.75 0C1247.73 13.7566 1235.72 13.7566 1223.7 0C1211.68 13.7566 1199.67 13.7566 1187.65 0C1175.63 13.7566 1163.62 13.7566 1151.6 0C1139.58 13.7566 1127.57 13.7566 1115.55 0C1103.53 13.7566 1091.52 13.7566 1079.5 0C1067.52 13.7566 1055.53 13.7566 1043.55 0C1031.57 13.7566 1019.58 13.7566 1007.6 0C995.617 13.7566 983.634 13.7566 971.65 0C959.667 13.7566 947.684 13.7566 935.7 0C923.717 13.7566 911.734 13.7566 899.75 0C887.767 13.7566 875.784 13.7566 863.8 0C851.817 13.7566 839.833 13.7566 827.85 0C815.867 13.7566 803.883 13.7566 791.9 0C779.917 13.7566 767.933 13.7566 755.95 0C743.967 13.7566 731.983 13.7566 720 0C707.983 13.7566 695.967 13.7566 683.95 0C671.933 13.7566 659.917 13.7566 647.9 0C635.883 13.7566 623.867 13.7566 611.85 0C599.834 13.7566 587.817 13.7566 575.8 0C563.784 13.7566 551.767 13.7566 539.75 0C527.734 13.7566 515.717 13.7566 503.7 0C491.684 13.7566 479.667 13.7566 467.65 0C455.634 13.7566 443.617 13.7566 431.601 0C419.584 13.7566 407.567 13.7566 395.551 0Z" fill="#DDEAF8"/>
</svg>
