<svg width="1440" height="224" viewBox="0 0 1440 224" fill="none" xmlns="http://www.w3.org/2000/svg">
<path d="M0 90.4829C5.54943 86.6694 17.2537 79.0425 19.6753 79.0425C22.7023 79.0425 34.8101 82.1626 40.8641 82.1626C46.918 82.1626 51.4584 72.8023 65.0798 71.7623C78.7011 70.7223 78.7011 71.7623 86.2686 71.7623C93.836 71.7623 92.3225 64.4821 98.3764 64.4821H136.213C143.781 64.4821 154.375 58.2419 164.97 58.2419C175.564 58.2419 183.131 42.6413 195.239 43.6814C207.347 44.7214 223.995 40.5613 228.536 39.5212C233.076 38.4812 239.13 34.321 245.184 35.3611C251.238 36.4011 255.779 39.5212 260.319 39.5212C264.859 39.5212 305.723 43.6814 314.804 45.7615C323.885 47.8415 382.911 43.6814 398.046 39.5212C410.154 36.1931 432.351 35.3611 441.937 35.3611C454.045 31.2009 483.104 22.8807 502.476 22.8807C526.692 22.8807 568.924 19.7607 581.177 27.0408C587.003 30.5018 590.258 39.5212 605.393 39.5212C620.528 39.5212 634.149 27.0408 643.23 27.0408C652.311 27.0408 671.986 22.8807 676.527 22.8807C681.067 22.8807 690.148 14.5605 699.229 16.6405C708.31 18.7206 709.823 19.7607 718.904 19.7607C727.985 19.7607 735.552 16.6405 746.147 16.6405H771.876C777.93 16.6405 783.984 16.6407 791.551 19.7607C799.119 22.8807 814.253 16.6405 827.875 16.6405C841.496 16.6405 849.064 16.6407 855.118 19.7607C861.172 22.8807 879.333 16.6407 892.955 19.7607C906.576 22.8807 908.089 27.0408 914.143 27.0408C920.197 27.0408 976.196 22.8806 988.304 27.0408C1000.41 31.2011 1080.63 26.0007 1101.82 22.8807C1123 19.7607 1139.65 22.8808 1145.71 19.7607C1151.76 16.6405 1153.27 10.4004 1163.87 11.4404C1174.46 12.4804 1209.27 11.4404 1224.41 11.4404C1239.54 11.4404 1253.16 6.2403 1263.76 11.4404C1274.35 16.6405 1316.73 11.4404 1331.86 11.4404C1347 11.4404 1390.89 0 1401.48 0H1437.5H1441V224H1437.16H718.904H0V90.4829Z" fill="#DDEAF8"/>
</svg>
