<svg width="238" height="126" viewBox="0 0 238 126" fill="none" xmlns="http://www.w3.org/2000/svg">
<path d="M37.7451 120C37.4811 120 37.2771 119.934 37.1331 119.802C37.0011 119.658 36.9351 119.454 36.9351 119.19V108.12C36.9351 107.856 37.0011 107.658 37.1331 107.526C37.2771 107.382 37.4811 107.31 37.7451 107.31H41.2191C43.2711 107.31 44.8551 107.85 45.9711 108.93C47.0871 110.01 47.6451 111.582 47.6451 113.646C47.6451 114.678 47.5011 115.59 47.2131 116.382C46.9371 117.162 46.5231 117.822 45.9711 118.362C45.4191 118.902 44.7471 119.31 43.9551 119.586C43.1631 119.862 42.2511 120 41.2191 120H37.7451ZM38.4111 118.74H41.1111C41.9511 118.74 42.6771 118.632 43.2891 118.416C43.9131 118.2 44.4291 117.882 44.8371 117.462C45.2571 117.042 45.5691 116.514 45.7731 115.878C45.9771 115.23 46.0791 114.486 46.0791 113.646C46.0791 111.954 45.6651 110.688 44.8371 109.848C44.0091 108.996 42.7671 108.57 41.1111 108.57H38.4111V118.74ZM51.1045 120C50.8405 120 50.6365 119.934 50.4925 119.802C50.3605 119.658 50.2945 119.454 50.2945 119.19V108.12C50.2945 107.856 50.3605 107.658 50.4925 107.526C50.6365 107.382 50.8405 107.31 51.1045 107.31H57.8005C58.0045 107.31 58.1605 107.364 58.2685 107.472C58.3765 107.58 58.4305 107.73 58.4305 107.922C58.4305 108.126 58.3765 108.282 58.2685 108.39C58.1605 108.498 58.0045 108.552 57.8005 108.552H51.7345V112.944H57.4225C57.6265 112.944 57.7825 112.998 57.8905 113.106C57.9985 113.202 58.0525 113.352 58.0525 113.556C58.0525 113.76 57.9985 113.916 57.8905 114.024C57.7825 114.132 57.6265 114.186 57.4225 114.186H51.7345V118.758H57.8005C58.0045 118.758 58.1605 118.812 58.2685 118.92C58.3765 119.028 58.4305 119.178 58.4305 119.37C58.4305 119.574 58.3765 119.73 58.2685 119.838C58.1605 119.946 58.0045 120 57.8005 120H51.1045ZM69.2813 120.126C69.0533 120.126 68.8733 120.06 68.7413 119.928C68.6093 119.784 68.5433 119.592 68.5433 119.352V108.588H64.4933C64.2773 108.588 64.1093 108.528 63.9893 108.408C63.8693 108.288 63.8093 108.132 63.8093 107.94C63.8093 107.736 63.8693 107.58 63.9893 107.472C64.1093 107.364 64.2773 107.31 64.4933 107.31H74.0873C74.3033 107.31 74.4713 107.364 74.5913 107.472C74.7113 107.58 74.7713 107.736 74.7713 107.94C74.7713 108.144 74.7113 108.306 74.5913 108.426C74.4713 108.534 74.3033 108.588 74.0873 108.588H70.0373V119.352C70.0373 119.592 69.9713 119.784 69.8393 119.928C69.7193 120.06 69.5333 120.126 69.2813 120.126ZM76.9954 120.126C76.7554 120.126 76.5694 120.06 76.4374 119.928C76.3174 119.784 76.2574 119.592 76.2574 119.352V108.066C76.2574 107.814 76.3234 107.628 76.4554 107.508C76.5874 107.376 76.7734 107.31 77.0134 107.31H81.2794C82.6354 107.31 83.6794 107.628 84.4114 108.264C85.1434 108.9 85.5094 109.806 85.5094 110.982C85.5094 111.726 85.3414 112.374 85.0054 112.926C84.6814 113.466 84.2014 113.88 83.5654 114.168C82.9294 114.444 82.1674 114.582 81.2794 114.582L81.4594 114.348H81.8194C82.2874 114.348 82.6954 114.468 83.0434 114.708C83.3914 114.948 83.7094 115.332 83.9974 115.86L85.7254 119.082C85.8214 119.25 85.8634 119.418 85.8514 119.586C85.8514 119.742 85.7974 119.874 85.6894 119.982C85.5814 120.078 85.4254 120.126 85.2214 120.126C85.0174 120.126 84.8494 120.078 84.7174 119.982C84.5854 119.886 84.4714 119.748 84.3754 119.568L82.4134 115.932C82.1374 115.416 81.8194 115.074 81.4594 114.906C81.0994 114.726 80.6254 114.636 80.0374 114.636H77.7334V119.352C77.7334 119.592 77.6734 119.784 77.5534 119.928C77.4334 120.06 77.2474 120.126 76.9954 120.126ZM77.7334 113.466H81.0634C82.0474 113.466 82.7914 113.262 83.2954 112.854C83.7994 112.434 84.0514 111.81 84.0514 110.982C84.0514 110.178 83.7994 109.572 83.2954 109.164C82.7914 108.744 82.0474 108.534 81.0634 108.534H77.7334V113.466ZM93.5385 120.162C92.3625 120.162 91.3365 119.898 90.4605 119.37C89.5965 118.83 88.9245 118.074 88.4445 117.102C87.9765 116.13 87.7425 114.978 87.7425 113.646C87.7425 112.638 87.8745 111.738 88.1385 110.946C88.4145 110.142 88.8045 109.464 89.3085 108.912C89.8125 108.348 90.4185 107.916 91.1265 107.616C91.8465 107.304 92.6505 107.148 93.5385 107.148C94.7385 107.148 95.7705 107.412 96.6345 107.94C97.5105 108.468 98.1825 109.218 98.6505 110.19C99.1305 111.15 99.3705 112.296 99.3705 113.628C99.3705 114.636 99.2325 115.542 98.9565 116.346C98.6805 117.15 98.2905 117.834 97.7865 118.398C97.2825 118.962 96.6705 119.4 95.9505 119.712C95.2425 120.012 94.4385 120.162 93.5385 120.162ZM93.5385 118.848C94.4505 118.848 95.2185 118.644 95.8425 118.236C96.4785 117.828 96.9645 117.234 97.3005 116.454C97.6365 115.674 97.8045 114.738 97.8045 113.646C97.8045 112.002 97.4325 110.73 96.6885 109.83C95.9565 108.918 94.9065 108.462 93.5385 108.462C92.6505 108.462 91.8885 108.666 91.2525 109.074C90.6285 109.482 90.1485 110.076 89.8125 110.856C89.4765 111.624 89.3085 112.554 89.3085 113.646C89.3085 115.278 89.6805 116.556 90.4245 117.48C91.1685 118.392 92.2065 118.848 93.5385 118.848ZM102.747 120.126C102.507 120.126 102.321 120.06 102.189 119.928C102.069 119.784 102.009 119.592 102.009 119.352V107.958C102.009 107.706 102.069 107.514 102.189 107.382C102.321 107.25 102.507 107.184 102.747 107.184C102.987 107.184 103.167 107.25 103.287 107.382C103.419 107.514 103.485 107.706 103.485 107.958V119.352C103.485 119.592 103.425 119.784 103.305 119.928C103.185 120.06 102.999 120.126 102.747 120.126ZM110.736 120.162C110.172 120.162 109.62 120.114 109.08 120.018C108.54 119.922 108.036 119.784 107.568 119.604C107.112 119.424 106.698 119.196 106.326 118.92C106.182 118.812 106.08 118.692 106.02 118.56C105.972 118.416 105.96 118.278 105.984 118.146C106.02 118.002 106.08 117.882 106.164 117.786C106.26 117.69 106.374 117.636 106.506 117.624C106.638 117.612 106.782 117.654 106.938 117.75C107.478 118.134 108.054 118.416 108.666 118.596C109.278 118.764 109.968 118.848 110.736 118.848C111.816 118.848 112.614 118.65 113.13 118.254C113.658 117.846 113.922 117.312 113.922 116.652C113.922 116.112 113.73 115.692 113.346 115.392C112.974 115.08 112.344 114.834 111.456 114.654L109.584 114.276C108.456 114.036 107.61 113.646 107.046 113.106C106.494 112.554 106.218 111.822 106.218 110.91C106.218 110.346 106.332 109.836 106.56 109.38C106.788 108.912 107.106 108.516 107.514 108.192C107.922 107.856 108.408 107.598 108.972 107.418C109.536 107.238 110.16 107.148 110.844 107.148C111.6 107.148 112.302 107.256 112.95 107.472C113.61 107.676 114.204 107.988 114.732 108.408C114.864 108.516 114.954 108.642 115.002 108.786C115.05 108.918 115.056 109.05 115.02 109.182C114.984 109.302 114.918 109.404 114.822 109.488C114.738 109.572 114.624 109.62 114.48 109.632C114.348 109.644 114.198 109.596 114.03 109.488C113.55 109.128 113.052 108.87 112.536 108.714C112.02 108.546 111.45 108.462 110.826 108.462C110.19 108.462 109.638 108.558 109.17 108.75C108.714 108.942 108.354 109.224 108.09 109.596C107.838 109.956 107.712 110.376 107.712 110.856C107.712 111.432 107.886 111.888 108.234 112.224C108.594 112.56 109.176 112.806 109.98 112.962L111.852 113.358C113.064 113.61 113.958 113.994 114.534 114.51C115.122 115.014 115.416 115.704 115.416 116.58C115.416 117.108 115.308 117.594 115.092 118.038C114.876 118.482 114.564 118.866 114.156 119.19C113.748 119.502 113.256 119.742 112.68 119.91C112.104 120.078 111.456 120.162 110.736 120.162ZM117.976 115.806C117.796 115.806 117.646 115.752 117.526 115.644C117.406 115.524 117.346 115.38 117.346 115.212C117.346 115.032 117.406 114.888 117.526 114.78C117.646 114.66 117.796 114.6 117.976 114.6H122.026C122.194 114.6 122.338 114.66 122.458 114.78C122.578 114.888 122.638 115.032 122.638 115.212C122.638 115.38 122.578 115.524 122.458 115.644C122.338 115.752 122.194 115.806 122.026 115.806H117.976ZM126.109 120.126C125.869 120.126 125.683 120.06 125.551 119.928C125.431 119.784 125.371 119.592 125.371 119.352V108.066C125.371 107.814 125.437 107.628 125.569 107.508C125.701 107.376 125.887 107.31 126.127 107.31H130.393C131.749 107.31 132.793 107.646 133.525 108.318C134.257 108.978 134.623 109.914 134.623 111.126C134.623 112.326 134.257 113.262 133.525 113.934C132.793 114.606 131.749 114.942 130.393 114.942H126.847V119.352C126.847 119.592 126.787 119.784 126.667 119.928C126.547 120.06 126.361 120.126 126.109 120.126ZM126.847 113.7H130.213C131.185 113.7 131.917 113.484 132.409 113.052C132.913 112.608 133.165 111.966 133.165 111.126C133.165 110.274 132.913 109.632 132.409 109.2C131.917 108.756 131.185 108.534 130.213 108.534H126.847V113.7ZM137.499 120.126C137.259 120.126 137.073 120.06 136.941 119.928C136.821 119.784 136.761 119.592 136.761 119.352V107.958C136.761 107.706 136.821 107.514 136.941 107.382C137.073 107.25 137.259 107.184 137.499 107.184C137.739 107.184 137.919 107.25 138.039 107.382C138.171 107.514 138.237 107.706 138.237 107.958V119.352C138.237 119.592 138.177 119.784 138.057 119.928C137.937 120.06 137.751 120.126 137.499 120.126ZM145.488 120.162C144.924 120.162 144.372 120.114 143.832 120.018C143.292 119.922 142.788 119.784 142.32 119.604C141.864 119.424 141.45 119.196 141.078 118.92C140.934 118.812 140.832 118.692 140.772 118.56C140.724 118.416 140.712 118.278 140.736 118.146C140.772 118.002 140.832 117.882 140.916 117.786C141.012 117.69 141.126 117.636 141.258 117.624C141.39 117.612 141.534 117.654 141.69 117.75C142.23 118.134 142.806 118.416 143.418 118.596C144.03 118.764 144.72 118.848 145.488 118.848C146.568 118.848 147.366 118.65 147.882 118.254C148.41 117.846 148.674 117.312 148.674 116.652C148.674 116.112 148.482 115.692 148.098 115.392C147.726 115.08 147.096 114.834 146.208 114.654L144.336 114.276C143.208 114.036 142.362 113.646 141.798 113.106C141.246 112.554 140.97 111.822 140.97 110.91C140.97 110.346 141.084 109.836 141.312 109.38C141.54 108.912 141.858 108.516 142.266 108.192C142.674 107.856 143.16 107.598 143.724 107.418C144.288 107.238 144.912 107.148 145.596 107.148C146.352 107.148 147.054 107.256 147.702 107.472C148.362 107.676 148.956 107.988 149.484 108.408C149.616 108.516 149.706 108.642 149.754 108.786C149.802 108.918 149.808 109.05 149.772 109.182C149.736 109.302 149.67 109.404 149.574 109.488C149.49 109.572 149.376 109.62 149.232 109.632C149.1 109.644 148.95 109.596 148.782 109.488C148.302 109.128 147.804 108.87 147.288 108.714C146.772 108.546 146.202 108.462 145.578 108.462C144.942 108.462 144.39 108.558 143.922 108.75C143.466 108.942 143.106 109.224 142.842 109.596C142.59 109.956 142.464 110.376 142.464 110.856C142.464 111.432 142.638 111.888 142.986 112.224C143.346 112.56 143.928 112.806 144.732 112.962L146.604 113.358C147.816 113.61 148.71 113.994 149.286 114.51C149.874 115.014 150.168 115.704 150.168 116.58C150.168 117.108 150.06 117.594 149.844 118.038C149.628 118.482 149.316 118.866 148.908 119.19C148.5 119.502 148.008 119.742 147.432 119.91C146.856 120.078 146.208 120.162 145.488 120.162ZM156.047 120.126C155.819 120.126 155.639 120.06 155.507 119.928C155.375 119.784 155.309 119.592 155.309 119.352V108.588H151.259C151.043 108.588 150.875 108.528 150.755 108.408C150.635 108.288 150.575 108.132 150.575 107.94C150.575 107.736 150.635 107.58 150.755 107.472C150.875 107.364 151.043 107.31 151.259 107.31H160.853C161.069 107.31 161.237 107.364 161.357 107.472C161.477 107.58 161.537 107.736 161.537 107.94C161.537 108.144 161.477 108.306 161.357 108.426C161.237 108.534 161.069 108.588 160.853 108.588H156.803V119.352C156.803 119.592 156.737 119.784 156.605 119.928C156.485 120.06 156.299 120.126 156.047 120.126ZM167.56 120.162C166.384 120.162 165.358 119.898 164.482 119.37C163.618 118.83 162.946 118.074 162.466 117.102C161.998 116.13 161.764 114.978 161.764 113.646C161.764 112.638 161.896 111.738 162.16 110.946C162.436 110.142 162.826 109.464 163.33 108.912C163.834 108.348 164.44 107.916 165.148 107.616C165.868 107.304 166.672 107.148 167.56 107.148C168.76 107.148 169.792 107.412 170.656 107.94C171.532 108.468 172.204 109.218 172.672 110.19C173.152 111.15 173.392 112.296 173.392 113.628C173.392 114.636 173.254 115.542 172.978 116.346C172.702 117.15 172.312 117.834 171.808 118.398C171.304 118.962 170.692 119.4 169.972 119.712C169.264 120.012 168.46 120.162 167.56 120.162ZM167.56 118.848C168.472 118.848 169.24 118.644 169.864 118.236C170.5 117.828 170.986 117.234 171.322 116.454C171.658 115.674 171.826 114.738 171.826 113.646C171.826 112.002 171.454 110.73 170.71 109.83C169.978 108.918 168.928 108.462 167.56 108.462C166.672 108.462 165.91 108.666 165.274 109.074C164.65 109.482 164.17 110.076 163.834 110.856C163.498 111.624 163.33 112.554 163.33 113.646C163.33 115.278 163.702 116.556 164.446 117.48C165.19 118.392 166.228 118.848 167.56 118.848ZM176.787 120C176.547 120 176.361 119.934 176.229 119.802C176.097 119.658 176.031 119.466 176.031 119.226V107.994C176.031 107.742 176.091 107.55 176.211 107.418C176.343 107.286 176.529 107.22 176.769 107.22C177.009 107.22 177.189 107.286 177.309 107.418C177.441 107.55 177.507 107.742 177.507 107.994V118.704H183.411C183.627 118.704 183.795 118.764 183.915 118.884C184.035 118.992 184.095 119.148 184.095 119.352C184.095 119.556 184.035 119.718 183.915 119.838C183.795 119.946 183.627 120 183.411 120H176.787ZM186.614 120C186.35 120 186.146 119.934 186.002 119.802C185.87 119.658 185.804 119.454 185.804 119.19V108.12C185.804 107.856 185.87 107.658 186.002 107.526C186.146 107.382 186.35 107.31 186.614 107.31H193.31C193.514 107.31 193.67 107.364 193.778 107.472C193.886 107.58 193.94 107.73 193.94 107.922C193.94 108.126 193.886 108.282 193.778 108.39C193.67 108.498 193.514 108.552 193.31 108.552H187.244V112.944H192.932C193.136 112.944 193.292 112.998 193.4 113.106C193.508 113.202 193.562 113.352 193.562 113.556C193.562 113.76 193.508 113.916 193.4 114.024C193.292 114.132 193.136 114.186 192.932 114.186H187.244V118.758H193.31C193.514 118.758 193.67 118.812 193.778 118.92C193.886 119.028 193.94 119.178 193.94 119.37C193.94 119.574 193.886 119.73 193.778 119.838C193.67 119.946 193.514 120 193.31 120H186.614ZM200.227 120.162C199.663 120.162 199.111 120.114 198.571 120.018C198.031 119.922 197.527 119.784 197.059 119.604C196.603 119.424 196.189 119.196 195.817 118.92C195.673 118.812 195.571 118.692 195.511 118.56C195.463 118.416 195.451 118.278 195.475 118.146C195.511 118.002 195.571 117.882 195.655 117.786C195.751 117.69 195.865 117.636 195.997 117.624C196.129 117.612 196.273 117.654 196.429 117.75C196.969 118.134 197.545 118.416 198.157 118.596C198.769 118.764 199.459 118.848 200.227 118.848C201.307 118.848 202.105 118.65 202.621 118.254C203.149 117.846 203.413 117.312 203.413 116.652C203.413 116.112 203.221 115.692 202.837 115.392C202.465 115.08 201.835 114.834 200.947 114.654L199.075 114.276C197.947 114.036 197.101 113.646 196.537 113.106C195.985 112.554 195.709 111.822 195.709 110.91C195.709 110.346 195.823 109.836 196.051 109.38C196.279 108.912 196.597 108.516 197.005 108.192C197.413 107.856 197.899 107.598 198.463 107.418C199.027 107.238 199.651 107.148 200.335 107.148C201.091 107.148 201.793 107.256 202.441 107.472C203.101 107.676 203.695 107.988 204.223 108.408C204.355 108.516 204.445 108.642 204.493 108.786C204.541 108.918 204.547 109.05 204.511 109.182C204.475 109.302 204.409 109.404 204.313 109.488C204.229 109.572 204.115 109.62 203.971 109.632C203.839 109.644 203.689 109.596 203.521 109.488C203.041 109.128 202.543 108.87 202.027 108.714C201.511 108.546 200.941 108.462 200.317 108.462C199.681 108.462 199.129 108.558 198.661 108.75C198.205 108.942 197.845 109.224 197.581 109.596C197.329 109.956 197.203 110.376 197.203 110.856C197.203 111.432 197.377 111.888 197.725 112.224C198.085 112.56 198.667 112.806 199.471 112.962L201.343 113.358C202.555 113.61 203.449 113.994 204.025 114.51C204.613 115.014 204.907 115.704 204.907 116.58C204.907 117.108 204.799 117.594 204.583 118.038C204.367 118.482 204.055 118.866 203.647 119.19C203.239 119.502 202.747 119.742 202.171 119.91C201.595 120.078 200.947 120.162 200.227 120.162Z" fill="#DDEAF8"/>
<path d="M36.1484 39V16.6465H46.0508V33.3896H54.7227V39H36.1484ZM56.0996 30.0352L55.8213 29.8447C57.1982 29.0049 57.9697 27.7549 58.1357 26.0947C55.5381 25.3232 54.2393 23.7656 54.2393 21.4219C54.2393 19.9863 54.7178 18.7754 55.6748 17.7891C56.6318 16.793 57.8037 16.2949 59.1904 16.2949C60.5967 16.2949 61.749 16.793 62.6475 17.7891C63.5557 18.7754 64.0098 20.0449 64.0098 21.5977C64.0098 23.5508 63.2578 25.3477 61.7539 26.9883C60.25 28.6289 58.3652 29.6445 56.0996 30.0352ZM86.0703 33.3896V39H67.5107V16.6465H86.0703V22.2568H77.3984V25.0254H83.4336V30.6357H77.3984V33.3896H86.0703ZM107.853 17.7891L105.392 24.835C103.78 22.6572 101.93 21.5684 99.8398 21.5684C98.6777 21.5684 98.0967 22.0078 98.0967 22.8867C98.0967 23.1602 98.2773 23.4385 98.6387 23.7217C99.0098 24.0049 99.9717 24.4492 101.524 25.0547C103.233 25.7285 104.547 26.3438 105.465 26.9004C106.393 27.4473 107.086 28.1504 107.545 29.0098C108.004 29.8691 108.233 30.8701 108.233 32.0127C108.233 34.4053 107.325 36.2314 105.509 37.4912C103.692 38.7412 101.021 39.3662 97.4961 39.3662C93.541 39.3662 90.1328 38.8047 87.2715 37.6816L89.6885 30.2109C90.3916 31.3047 91.2607 32.1738 92.2959 32.8184C93.3408 33.4629 94.3418 33.7852 95.2988 33.7852C95.7676 33.7852 96.1582 33.6631 96.4707 33.4189C96.793 33.1748 96.9541 32.877 96.9541 32.5254C96.9541 32.1934 96.7979 31.876 96.4854 31.5732C96.1826 31.2705 95.3721 30.8506 94.0537 30.3135C92.8623 29.835 91.876 29.3711 91.0947 28.9219C90.3135 28.4629 89.6348 27.8135 89.0586 26.9736C88.4824 26.1338 88.1943 25.0742 88.1943 23.7949C88.1943 21.3145 89.0977 19.4443 90.9043 18.1846C92.7109 16.9248 95.377 16.2949 98.9023 16.2949C102.125 16.2949 105.108 16.793 107.853 17.7891ZM131.803 18.6533L127.657 26.5488C126.446 26.1289 125.108 25.9189 123.644 25.9189C121.544 25.9189 120.494 26.4902 120.494 27.6328C120.494 28.1797 120.787 28.6094 121.373 28.9219C121.959 29.2246 122.794 29.376 123.878 29.376C125.343 29.376 126.603 29.1123 127.657 28.585L131.803 37.0518C130.631 37.7549 129.215 38.3164 127.555 38.7363C125.895 39.1562 124.308 39.3662 122.794 39.3662C118.995 39.3662 115.968 38.2725 113.712 36.085C111.466 33.8877 110.343 31.1875 110.343 27.9844C110.343 24.5957 111.515 21.8027 113.858 19.6055C116.202 17.3984 119.181 16.2949 122.794 16.2949C124.356 16.2949 125.968 16.5098 127.628 16.9395C129.298 17.3594 130.689 17.9307 131.803 18.6533ZM141.69 39H131.788L139.552 16.6465H153.658L161.422 39H151.534L150.245 35.2207H142.979L141.69 39ZM144.781 29.9473H148.443L146.612 24.3955L144.781 29.9473ZM163.619 39V16.6465H173.521V33.3896H182.193V39H163.619ZM203.17 33.3896V39H184.61V16.6465H203.17V22.2568H194.498V25.0254H200.533V30.6357H194.498V33.3896H203.17ZM25.6162 94V71.6465H35.2256L39.2686 76.3047L43.3262 71.6465H52.9209V94H43.0186V82.8086L39.2686 87.1299L35.5186 82.8086V94H25.6162ZM64.9766 94H55.0742L62.8379 71.6465H76.9443L84.708 94H74.8203L73.5312 90.2207H66.2656L64.9766 94ZM68.0674 84.9473H71.7295L69.8984 79.3955L68.0674 84.9473ZM86.9492 71.6465H101.554C104.083 71.6465 106.07 72.2861 107.516 73.5654C108.961 74.835 109.684 76.4268 109.684 78.3408C109.684 80.4502 108.834 82.1006 107.135 83.292C109.547 86.0459 110.987 89.6152 111.456 94H101.188C101.002 91.1777 100.577 89.0928 99.9131 87.7451C99.2588 86.3975 98.2334 85.7236 96.8369 85.7236V94H86.9492V71.6465ZM96.8369 76.2461V80.5527H97.1152C98.8926 80.5527 99.7812 79.8545 99.7812 78.458C99.7812 77.8721 99.6006 77.3594 99.2393 76.9199C98.8779 76.4707 98.2773 76.2461 97.4375 76.2461H96.8369ZM113.902 94V71.6465H123.79V94H113.902ZM126.573 81.5488V71.6465H146.437V81.5488H141.456V94H131.554V81.5488H126.573ZM149.234 94V71.6465H159.122V94H149.234ZM163.487 94V71.6465H173.097L177.14 76.3047L181.197 71.6465H190.792V94H180.89V82.8086L177.14 87.1299L173.39 82.8086V94H163.487ZM213.673 88.3896V94H195.113V71.6465H213.673V77.2568H205.001V80.0254H211.036V85.6357H205.001V88.3896H213.673Z" fill="#DDEAF8"/>
<path d="M32 52C41.6667 60.6476 51.3333 60.6476 61 52C70.6667 60.6476 80.3333 60.6476 90 52C99.6667 60.6476 109.333 60.6476 119 52C128.667 60.6476 138.333 60.6476 148 52C157.667 60.6476 167.333 60.6476 177 52C186.667 60.6476 196.333 60.6476 206 52" stroke="#F62F2F" stroke-width="4.5"/>
</svg>
