<svg width="1375" height="314" viewBox="0 0 1375 314" fill="none" xmlns="http://www.w3.org/2000/svg">
<path d="M277.385 125.417L13.8541 148.603C12.255 148.744 11.05 150.119 11.1199 151.722L11.5944 162.613C11.6626 164.179 12.9251 165.429 14.4918 165.481L257.825 173.571C258.064 173.579 258.304 173.558 258.538 173.509L425.96 138.519C429.406 137.799 429.008 132.756 425.491 132.586L277.385 125.417Z" fill="#99BFEB"/>
<path d="M23.8866 148.597L266.261 157.337C267.242 157.373 268.224 157.312 269.192 157.155L1015.51 36.6839C1016.74 36.4848 1018 36.4406 1019.24 36.5522L1020.54 36.6683L1019.69 17.351C1019.64 16.0465 1020.65 14.943 1021.95 14.8861C1023.26 14.8293 1024.36 15.8407 1024.42 17.1452L1025.29 37.0945L1360.74 67.1843C1364.1 67.4853 1366.71 70.2232 1366.86 73.5892L1367.03 77.5516C1367.1 79.0735 1365.92 80.361 1364.4 80.4273C1362.88 80.4936 1361.7 81.7812 1361.76 83.3031L1362.02 89.2014C1362.11 91.3792 1360.42 93.2216 1358.25 93.3165C1356.8 93.3797 1355.5 94.2343 1354.87 95.5415L1352.33 100.785C1351.34 102.826 1350.88 105.08 1350.98 107.345L1353.14 157.088C1353.18 157.813 1353.49 158.495 1354.03 158.986C1355.83 160.638 1354.72 163.646 1352.28 163.735L1037.23 175.248C1028.81 175.556 1022.29 182.746 1022.81 191.161L1026.28 247.473C1026.81 256.007 1020.11 263.253 1011.56 263.394L385.606 273.734L165.256 283.334C156.65 283.709 149.497 276.775 149.604 268.162L150.443 200.556C150.546 192.199 143.8 185.369 135.442 185.37L22.4934 185.379C13.4661 185.38 6.48321 177.465 7.6092 168.508L8.46314 161.716C9.43201 154.009 16.1241 148.317 23.8866 148.597Z" fill="#DDEAF8"/>
<path d="M898.876 231.655C729.819 231.259 633.575 234.348 471.38 249.552C463.434 250.297 457.457 257.151 457.804 265.125L457.984 269.247C458.362 277.93 465.991 284.474 474.638 283.598C635.173 267.334 944.836 260.554 950.764 263.865C1078.81 268.441 1152.19 267.181 1273.06 249.972C1281.16 248.818 1286.83 241.339 1285.77 233.222L1284.86 226.268C1283.8 218.201 1276.49 212.451 1268.4 213.28C1128.97 227.558 1045.14 229.988 898.876 231.655Z" fill="#99BFEB"/>
</svg>
