<svg width="505" height="12" viewBox="0 0 505 12" fill="none" xmlns="http://www.w3.org/2000/svg">
<path d="M334 4C339.633 10.6667 345.267 10.6667 350.9 4C356.533 10.6667 362.167 10.6667 367.8 4C373.433 10.6667 379.067 10.6667 384.7 4C390.333 10.6667 395.967 10.6667 401.6 4C407.233 10.6667 412.867 10.6667 418.5 4C424.133 10.6667 429.767 10.6667 435.4 4C441.033 10.6667 446.667 10.6667 452.3 4C457.933 10.6667 463.567 10.6667 469.2 4C474.833 10.6667 480.467 10.6667 486.1 4C491.733 10.6667 497.367 10.6667 503 4" stroke="#7DCFB6" stroke-width="5"/>
<path d="M168 4C173.633 10.6667 179.267 10.6667 184.9 4C190.533 10.6667 196.167 10.6667 201.8 4C207.433 10.6667 213.067 10.6667 218.7 4C224.333 10.6667 229.967 10.6667 235.6 4C241.233 10.6667 246.867 10.6667 252.5 4C258.133 10.6667 263.767 10.6667 269.4 4C275.033 10.6667 280.667 10.6667 286.3 4C291.933 10.6667 297.567 10.6667 303.2 4C308.833 10.6667 314.467 10.6667 320.1 4C325.733 10.6667 331.367 10.6667 337 4" stroke="#7DCFB6" stroke-width="5"/>
<path d="M2 4C7.63333 10.6667 13.2667 10.6667 18.9 4C24.5333 10.6667 30.1667 10.6667 35.8 4C41.4333 10.6667 47.0667 10.6667 52.7 4C58.3333 10.6667 63.9667 10.6667 69.6 4C75.2333 10.6667 80.8667 10.6667 86.5 4C92.1333 10.6667 97.7667 10.6667 103.4 4C109.033 10.6667 114.667 10.6667 120.3 4C125.933 10.6667 131.567 10.6667 137.2 4C142.833 10.6667 148.467 10.6667 154.1 4C159.733 10.6667 165.367 10.6667 171 4" stroke="#7DCFB6" stroke-width="5"/>
</svg>
