<svg width="1439" height="130" viewBox="0 0 1439 130" fill="none" xmlns="http://www.w3.org/2000/svg">
<path d="M389.473 0C377.398 13.7566 365.323 13.7566 353.248 0C341.207 13.7566 329.165 13.7566 317.123 0C305.082 13.7566 293.04 13.7566 280.999 0C268.957 13.7566 256.915 13.7566 244.874 0C232.832 13.7566 220.791 13.7566 208.749 0C196.707 13.7566 184.666 13.7566 172.624 0C160.583 13.7566 148.541 13.7566 136.499 0C124.458 13.7566 112.416 13.7566 100.374 0C88.3329 13.7566 76.2913 13.7566 64.2497 0C52.208 13.7566 40.1664 13.7566 28.1248 0C16.0832 13.7566 4.04161 13.7566 -8 0V130H1439V0C1426.93 13.7566 1414.85 13.7566 1402.77 0C1390.7 13.7566 1378.62 13.7566 1366.55 0C1354.47 13.7566 1342.4 13.7566 1330.32 0C1318.25 13.7566 1306.17 13.7566 1294.1 0C1282.02 13.7566 1269.95 13.7566 1257.87 0C1245.8 13.7566 1233.72 13.7566 1221.65 0C1209.57 13.7566 1197.5 13.7566 1185.42 0C1173.35 13.7566 1161.27 13.7566 1149.2 0C1137.12 13.7566 1125.05 13.7566 1112.97 0C1100.9 13.7566 1088.82 13.7566 1076.75 0C1064.71 13.7566 1052.67 13.7566 1040.62 0C1028.58 13.7566 1016.54 13.7566 1004.5 0C992.457 13.7566 980.415 13.7566 968.374 0C956.332 13.7566 944.291 13.7566 932.249 0C920.207 13.7566 908.166 13.7566 896.124 0C884.083 13.7566 872.041 13.7566 859.999 0C847.958 13.7566 835.916 13.7566 823.875 0C811.833 13.7566 799.791 13.7566 787.75 0C775.708 13.7566 763.666 13.7566 751.625 0C739.583 13.7566 727.542 13.7566 715.5 0C703.425 13.7566 691.35 13.7566 679.275 0C667.2 13.7566 655.125 13.7566 643.05 0C630.975 13.7566 618.9 13.7566 606.825 0C594.749 13.7566 582.674 13.7566 570.599 0C558.524 13.7566 546.449 13.7566 534.374 0C522.299 13.7566 510.224 13.7566 498.149 0C486.074 13.7566 473.999 13.7566 461.924 0C449.849 13.7566 437.774 13.7566 425.699 0C413.624 13.7566 401.549 13.7566 389.473 0Z" fill="white"/>
</svg>
