<svg width="8" height="412" viewBox="0 0 8 412" fill="none" xmlns="http://www.w3.org/2000/svg">
<path d="M5.49121 274C0.83638 278.533 0.83638 283.067 5.49121 287.6C0.836379 292.133 0.836379 296.667 5.49121 301.2C0.836379 305.733 0.836378 310.267 5.49121 314.8C0.836378 319.333 0.836378 323.867 5.49121 328.4C0.836377 332.933 0.836377 337.467 5.49121 342C0.836377 346.533 0.836377 351.067 5.49121 355.6C0.836376 360.133 0.836376 364.667 5.49121 369.2C0.836376 373.733 0.836375 378.267 5.49121 382.8C0.836375 387.333 0.836375 391.867 5.49121 396.4C0.836374 400.933 0.836374 405.467 5.4912 410" stroke="#7DCFB6" stroke-width="3"/>
<path d="M5.49121 138C0.83638 142.533 0.83638 147.067 5.49121 151.6C0.836379 156.133 0.836379 160.667 5.49121 165.2C0.836379 169.733 0.836378 174.267 5.49121 178.8C0.836378 183.333 0.836378 187.867 5.49121 192.4C0.836377 196.933 0.836377 201.467 5.49121 206C0.836377 210.533 0.836377 215.067 5.49121 219.6C0.836376 224.133 0.836376 228.667 5.49121 233.2C0.836376 237.733 0.836375 242.267 5.49121 246.8C0.836375 251.333 0.836375 255.867 5.49121 260.4C0.836374 264.933 0.836374 269.467 5.4912 274" stroke="#7DCFB6" stroke-width="3"/>
<path d="M5.49121 2C0.83638 6.53333 0.83638 11.0667 5.49121 15.6C0.836379 20.1333 0.836379 24.6667 5.49121 29.2C0.836379 33.7333 0.836378 38.2667 5.49121 42.8C0.836378 47.3333 0.836378 51.8666 5.49121 56.4C0.836377 60.9333 0.836377 65.4666 5.49121 70C0.836377 74.5333 0.836377 79.0666 5.49121 83.6C0.836376 88.1333 0.836376 92.6666 5.49121 97.2C0.836376 101.733 0.836375 106.267 5.49121 110.8C0.836375 115.333 0.836375 119.867 5.49121 124.4C0.836374 128.933 0.836374 133.467 5.4912 138" stroke="#7DCFB6" stroke-width="3"/>
</svg>
